<svg width="383" height="330" viewBox="0 0 383 330" fill="none" xmlns="http://www.w3.org/2000/svg">
<g clip-path="url(#clip0_341_128020)">
<path fill-rule="evenodd" clip-rule="evenodd" d="M37.6133 152.242L36.9514 156.423L36.5425 160.644L36.4062 164.864L36.5425 169.104L36.9514 173.324L37.6133 177.505L38.5283 181.629L39.7159 185.693L41.1566 189.68L42.8309 193.57L44.7583 197.343L46.9193 200.98L49.2945 204.48L51.8838 207.826L54.6873 211.015L57.6855 213.991L60.8783 216.791L64.2269 219.397L67.7313 221.77L123.314 255.63L126.955 257.788L130.732 259.694L134.625 261.386L138.617 262.826L142.685 263.992L146.813 264.926L150.999 265.587L155.223 265.976L159.467 266.112L184.952 266.346L189.196 266.21L193.421 265.821L265.922 257.147L270.108 256.485L274.235 255.571L278.304 254.385L282.295 252.946L286.189 251.273L289.966 249.348L293.606 247.189L297.111 244.816L300.459 242.21L303.633 239.41L306.631 236.434L309.434 233.245L312.043 229.899L314.418 226.399L316.579 222.762L318.487 218.989L336.904 179.314L338.579 175.425L340.019 171.438L341.188 167.373L342.122 163.25L342.784 159.068L343.173 154.848L343.31 150.628L343.173 146.388L342.784 142.168L342.122 137.986L341.207 133.863L340.019 129.799L338.579 125.812L335.113 117.721L333.439 113.832L331.512 110.059L329.351 106.422L319.344 91.6409L316.969 88.1402L314.36 84.7951L311.556 81.6056L308.558 78.63L267.07 37.7884L263.897 34.9878L260.549 32.4012L257.044 30.0285L253.404 27.8697L249.627 25.9443L245.733 24.2718L241.742 22.8326L237.673 21.6462L233.546 20.7322L229.36 20.0515L225.135 19.6625L220.891 19.5264L216.666 19.6625L212.442 20.0515L208.256 20.7322L204.128 21.6462L200.059 22.8326L196.068 24.2718L192.175 25.9443L142.783 49.8658L139.006 51.7912L75.1877 85.3786L71.5276 87.5373L68.0233 89.91L64.6747 92.5161L61.5013 95.3167L58.5031 98.3117L55.6997 101.482L53.1103 104.827L50.7352 108.328L48.5741 111.964L46.6467 115.737L44.953 119.627L43.5123 123.614L42.3442 127.679L41.4097 131.802L37.6133 152.242Z" fill="#222222"/>
<path d="M136.689 146.679C140.872 146.679 144.262 141.795 144.262 135.769C144.262 129.743 140.872 124.858 136.689 124.858C132.506 124.858 129.116 129.743 129.116 135.769C129.116 141.795 132.506 146.679 136.689 146.679Z" fill="#F86825" stroke="#F86825" stroke-width="1.94484" stroke-miterlimit="10"/>
<path d="M162.875 147.711C167.057 147.711 170.448 142.826 170.448 136.8C170.448 130.775 167.057 125.89 162.875 125.89C158.692 125.89 155.302 130.775 155.302 136.8C155.302 142.826 158.692 147.711 162.875 147.711Z" fill="#F86825" stroke="#F86825" stroke-width="1.94484" stroke-miterlimit="10"/>
<path d="M200.235 162.161C193.401 178.575 177.204 190.108 158.3 190.108" stroke="#F86825" stroke-width="7.77935" stroke-miterlimit="10" stroke-linecap="round"/>
<path fill-rule="evenodd" clip-rule="evenodd" d="M229.262 245.244C234.638 245.244 238.996 249.598 238.996 254.968V330H211.468C206.092 330 201.733 325.646 201.733 320.276C201.733 314.905 206.092 310.552 211.468 310.552H219.528V254.968C219.528 249.598 223.886 245.244 229.262 245.244Z" fill="#222222"/>
<path fill-rule="evenodd" clip-rule="evenodd" d="M183.219 245.244C188.595 245.244 192.953 249.598 192.953 254.968V330H165.425C160.049 330 155.69 325.646 155.69 320.276C155.69 314.905 160.049 310.552 165.425 310.552H173.485V254.968C173.485 249.598 177.843 245.244 183.219 245.244Z" fill="#222222"/>
<path fill-rule="evenodd" clip-rule="evenodd" d="M365.696 54.2829C368.737 57.3209 368.737 62.2465 365.696 65.2846L313.656 117.27C310.615 120.308 305.684 120.308 302.643 117.27C299.602 114.232 299.602 109.306 302.643 106.268L354.682 54.2829C357.724 51.2449 362.654 51.2449 365.696 54.2829Z" fill="#222222"/>
<path fill-rule="evenodd" clip-rule="evenodd" d="M199.293 111.862C200.145 113.834 199.235 116.123 197.261 116.975L163.658 131.464C161.684 132.315 159.392 131.406 158.54 129.434C157.688 127.462 158.598 125.173 160.572 124.321L194.175 109.832C196.149 108.981 198.44 109.89 199.293 111.862Z" fill="#F86825"/>
<path fill-rule="evenodd" clip-rule="evenodd" d="M101.945 111.551C102.797 109.579 105.088 108.67 107.063 109.521L140.665 124.01C142.64 124.861 143.549 127.15 142.697 129.123C141.845 131.095 139.554 132.004 137.579 131.153L103.976 116.664C102.002 115.812 101.092 113.523 101.945 111.551Z" fill="#F86825"/>
<path fill-rule="evenodd" clip-rule="evenodd" d="M318.684 21.3201C321.724 18.2815 326.655 18.2805 329.697 21.318L380.218 71.7671C383.26 74.8045 383.261 79.7301 380.22 82.7687C377.179 85.8073 372.249 85.8083 369.207 82.7708L318.686 32.3218C315.644 29.2843 315.643 24.3587 318.684 21.3201Z" fill="#222222"/>
<path fill-rule="evenodd" clip-rule="evenodd" d="M328.302 2.27851C331.343 -0.759508 336.274 -0.759504 339.315 2.27852L356.246 19.192C363.41 26.3819 363.428 38.0268 356.233 45.2144L342.605 58.8283L342.592 58.8411C335.395 65.9974 323.738 66.0159 316.543 58.8283L299.625 41.9276C296.583 38.8896 296.583 33.964 299.625 30.926C302.666 27.8879 307.597 27.8879 310.638 30.926L327.556 47.8266C328.653 48.9226 330.465 48.9424 331.601 47.8181C331.602 47.8167 331.604 47.8152 331.605 47.8137L345.22 34.2127C346.317 33.1168 346.337 31.3066 345.212 30.1723C345.21 30.1708 345.209 30.1694 345.207 30.1679L328.302 13.2802C325.261 10.2421 325.261 5.31654 328.302 2.27851Z" fill="#222222"/>
<path fill-rule="evenodd" clip-rule="evenodd" d="M58.7143 170.137C61.7555 173.175 61.7555 178.101 58.7143 181.139L15.5749 224.234V236.667C15.5749 240.964 12.0883 244.447 7.78745 244.447C3.48656 244.447 0 240.964 0 236.667V217.789L47.7012 170.137C50.7424 167.099 55.6731 167.099 58.7143 170.137Z" fill="#222222"/>
</g>
<defs>
<clipPath id="clip0_341_128020">
<rect width="382.5" height="330" fill="white"/>
</clipPath>
</defs>
</svg>
