<svg width="445" height="330" viewBox="0 0 445 330" fill="none" xmlns="http://www.w3.org/2000/svg">
<path fill-rule="evenodd" clip-rule="evenodd" d="M394.708 179.366L396.06 175.059L397.142 170.654L397.953 166.224L398.47 161.721L398.716 157.217L398.666 152.69L398.322 148.187L397.708 143.708L396.798 139.278L395.642 134.898L394.192 130.615L392.471 126.43L390.479 122.367L388.266 118.427L385.783 114.633L383.078 111.011L380.153 107.56L377.006 104.305L373.662 101.246L320.038 56.8511L316.498 54.0122L312.785 51.3935L308.925 49.0196L304.942 46.8659L300.812 45.0059L296.558 43.3906L292.231 42.0201L287.83 40.9433L283.355 40.1601L256.359 35.9506L251.835 35.4367L247.311 35.1919L169.101 33.0627L164.577 33.1117L160.053 33.4543L155.554 34.0662L151.103 34.9717L146.702 36.1219L142.4 37.5659L138.195 39.279L134.114 41.2614L130.156 43.464L126.345 45.9359L122.706 48.628L119.239 51.5403L115.969 54.673L112.896 58.0014L110.044 61.5256L107.413 65.1966L81.6953 104.257L79.3104 108.099L77.1713 112.088L75.2782 116.2L73.6554 120.409L72.3032 124.716L71.2214 129.122L70.41 133.551L69.8937 138.055L69.6478 142.558L69.697 147.085L70.0412 151.589L70.6559 156.067L71.5656 160.497L73.9505 169.577L75.1306 173.957L76.5813 178.24L78.3023 182.425L86.6126 199.581L88.5795 203.644L90.8169 207.584L93.2756 211.378L95.9801 215L133.573 264.583L136.524 268.034L139.671 271.289L143.014 274.348L146.53 277.187L150.243 279.806L154.103 282.18L158.111 284.334L162.217 286.194L166.47 287.809L170.797 289.179L175.198 290.256L179.673 291.039L184.197 291.553L188.721 291.798L193.27 291.749L197.793 291.431L202.293 290.795L206.743 289.913L211.119 288.739L267.226 271.142L271.529 269.698L344.428 244.148L348.633 242.435L352.714 240.477L356.672 238.25L360.483 235.778L364.122 233.086L367.589 230.173L370.859 227.041L373.932 223.712L376.809 220.213L379.44 216.517L381.825 212.675L383.964 208.686L385.857 204.598L387.48 200.364L394.708 179.366Z" fill="#222222"/>
<path fill-rule="evenodd" clip-rule="evenodd" d="M15.9019 153.743C24.0492 153.743 30.6539 160.317 30.6539 168.427V176.112H98.4639C106.611 176.112 113.216 182.686 113.216 190.796C113.216 198.906 106.611 205.48 98.4639 205.48H1.1499V168.427C1.1499 160.317 7.75459 153.743 15.9019 153.743Z" fill="#222222"/>
<path fill-rule="evenodd" clip-rule="evenodd" d="M15.9019 103.204C24.0492 103.204 30.6539 109.779 30.6539 117.889V125.573H98.4639C106.611 125.573 113.216 132.148 113.216 140.257C113.216 148.367 106.611 154.942 98.4639 154.942H1.1499V117.889C1.1499 109.779 7.75459 103.204 15.9019 103.204Z" fill="#222222"/>
<path fill-rule="evenodd" clip-rule="evenodd" d="M273.465 222.409C279.226 216.674 288.567 216.674 294.328 222.409L360.048 287.827C365.809 293.561 365.809 302.859 360.048 308.593C354.287 314.328 344.946 314.328 339.185 308.593L273.465 243.175C267.704 237.441 267.704 228.143 273.465 222.409Z" fill="#222222"/>
<path fill-rule="evenodd" clip-rule="evenodd" d="M360.917 6.17542C367.158 12.3878 367.158 22.4601 360.917 28.6725L295.197 94.0905C288.956 100.303 278.837 100.303 272.596 94.0905C266.355 87.8781 266.355 77.8058 272.596 71.5934L338.316 6.17542C344.557 -0.0369876 354.676 -0.0369887 360.917 6.17542Z" fill="#222222"/>
<path d="M402.913 233.726C403.01 233.657 403.139 233.632 403.252 233.642C405.009 233.943 418.346 236.759 417.798 253.956C417.322 269.04 427.603 271.128 431.347 271.408C431.772 271.442 431.932 271.984 431.572 272.243L401.577 293.771C401.438 293.871 401.259 293.886 401.104 293.817C399.209 292.889 391.646 289.498 392.538 278.508C393.966 260.907 381.159 256.361 374.577 255.015C374.183 254.936 374.093 254.434 374.426 254.195L402.923 233.741L402.913 233.726ZM374.429 254.17L323.189 291.467Z" fill="#222222"/>
<path d="M374.429 254.17L323.189 291.467M402.913 233.726C403.01 233.657 403.139 233.632 403.252 233.642C405.009 233.943 418.346 236.759 417.798 253.956C417.322 269.04 427.603 271.128 431.347 271.408C431.772 271.442 431.932 271.984 431.572 272.243L401.577 293.771C401.438 293.871 401.259 293.886 401.104 293.817C399.209 292.889 391.646 289.498 392.538 278.508C393.966 260.907 381.159 256.361 374.577 255.015C374.183 254.936 374.093 254.434 374.426 254.195L402.923 233.741L402.913 233.726Z" stroke="#222222" stroke-width="24.5867" stroke-miterlimit="10" stroke-linecap="round"/>
<path fill-rule="evenodd" clip-rule="evenodd" d="M238.776 97.3379C236.8 95.4779 236.708 92.3772 238.57 90.4122L260.967 66.7771C262.829 64.8122 265.94 64.7271 267.916 66.5871C269.892 68.4471 269.984 71.5478 268.122 73.5128L245.725 97.1478C243.863 99.1128 240.752 99.1979 238.776 97.3379Z" fill="#F86825"/>
<path fill-rule="evenodd" clip-rule="evenodd" d="M232.316 78.9101C232.702 76.2327 235.193 74.3785 237.88 74.7686L270.207 79.4607C272.895 79.8508 274.761 82.3375 274.375 85.0149C273.99 87.6923 271.499 89.5465 268.811 89.1564L236.485 84.4643C233.797 84.0742 231.931 81.5875 232.316 78.9101Z" fill="#F86825"/>
<path fill-rule="evenodd" clip-rule="evenodd" d="M235.78 117.266C234.144 119.426 234.573 122.498 236.739 124.126L262.794 143.706C264.96 145.334 268.043 144.902 269.679 142.741C271.316 140.58 270.887 137.509 268.721 135.881L242.666 116.3C240.5 114.673 237.417 115.105 235.78 117.266Z" fill="#F86825"/>
<path fill-rule="evenodd" clip-rule="evenodd" d="M232.501 136.499C233.331 139.074 236.099 140.488 238.684 139.658L269.779 129.673C272.364 128.843 273.788 126.083 272.958 123.508C272.129 120.933 269.361 119.518 266.776 120.349L235.681 130.334C233.095 131.164 231.672 133.924 232.501 136.499Z" fill="#F86825"/>
<path fill-rule="evenodd" clip-rule="evenodd" d="M166.299 72.0152C167.241 70.2177 169.468 69.5208 171.274 70.4586C181.334 75.683 191.84 85.9383 194.54 98.9754C197.335 112.472 191.528 127.557 171.703 141.562C170.042 142.736 167.739 142.346 166.561 140.693C165.382 139.04 165.773 136.748 167.434 135.575C185.718 122.659 189.336 110.211 187.316 100.458C185.201 90.2448 176.652 81.5331 167.862 76.968C166.057 76.0302 165.356 73.8127 166.299 72.0152Z" fill="#F86825"/>
</svg>
