<svg width="385" height="330" viewBox="0 0 385 330" fill="none" xmlns="http://www.w3.org/2000/svg">
<path fill-rule="evenodd" clip-rule="evenodd" d="M8.98253 7.7832C13.2726 7.7832 16.7505 11.269 16.7505 15.569V31.9651L71.221 86.5798C74.254 89.6209 74.2532 94.5506 71.2191 97.5907C68.185 100.631 63.2666 100.63 60.2336 97.5888L1.2146 38.4136V15.569C1.2146 11.269 4.69242 7.7832 8.98253 7.7832Z" fill="#F86825"/>
<path fill-rule="evenodd" clip-rule="evenodd" d="M36.248 136.717L35.5683 140.96L35.1799 145.242L35.0439 149.544L35.1799 153.845L35.5683 158.147L36.248 162.39L37.1801 166.595L38.3842 170.741L39.8406 174.789L41.5496 178.741L43.4916 182.575L45.686 186.273L48.0941 189.835L50.7352 193.242L53.5705 196.473L56.6 199.509L59.8237 202.371L63.2221 204.998L66.776 207.412L123.113 241.845L126.803 244.044L130.628 245.991L134.571 247.704L138.61 249.164L142.746 250.37L146.941 251.305L151.175 251.986L155.447 252.375L159.739 252.511L185.587 252.764L189.878 252.628L194.151 252.219L267.635 243.402L271.869 242.721L276.064 241.786L280.181 240.58L284.239 239.139L288.182 237.426L292.007 235.46L295.697 233.28L299.251 230.847L302.649 228.22L305.873 225.358L308.902 222.322L311.738 219.091L314.379 215.684L316.787 212.122L318.981 208.424L320.923 204.59L339.566 164.24L341.275 160.288L342.732 156.24L343.936 152.094L344.868 147.889L345.548 143.646L345.936 139.364L346.072 135.062L345.936 130.741L345.548 126.459L344.868 122.216L343.936 118.011L342.732 113.865L341.275 109.817L337.78 101.583L336.071 97.6512L334.109 93.7972L331.934 90.0989L321.778 75.0723L319.37 71.5103L316.748 68.104L313.893 64.8728L310.864 61.8364L268.82 20.2989L265.596 17.4571L262.198 14.8294L258.644 12.3963L254.954 10.1968L251.128 8.25037L247.186 6.53749L243.147 5.07764L239.01 3.89031L234.816 2.93654L230.582 2.27474L226.31 1.86599L222.018 1.72974L217.726 1.86599L213.435 2.27474L209.201 2.93654L205.006 3.89031L200.889 5.07764L196.85 6.53749L192.908 8.25037L142.843 32.5811L139.018 34.547L74.3303 68.7074L70.6405 70.8874L67.0867 73.3205L63.6882 75.9482L60.4645 78.79L57.435 81.846L54.5997 85.0771L51.9586 88.4639L49.5506 92.0259L47.3561 95.7437L45.4141 99.5782L43.7052 103.53L42.2487 107.578L41.0447 111.705L40.1125 115.909L36.248 136.717Z" fill="#F86825"/>
<path d="M128.181 124.435C133.919 124.435 138.571 118.213 138.571 110.537C138.571 102.862 133.919 96.6394 128.181 96.6394C122.443 96.6394 117.792 102.862 117.792 110.537C117.792 118.213 122.443 124.435 128.181 124.435Z" fill="#222222"/>
<path d="M177.702 124.435C183.44 124.435 188.092 118.213 188.092 110.537C188.092 102.862 183.44 96.6394 177.702 96.6394C171.964 96.6394 167.313 102.862 167.313 110.537C167.313 118.213 171.964 124.435 177.702 124.435Z" fill="#222222"/>
<path fill-rule="evenodd" clip-rule="evenodd" d="M214.983 145.034C216.964 145.859 217.903 148.137 217.08 150.123C207.119 174.162 183.462 191.082 155.855 191.082C128.249 191.082 104.836 174.322 94.7755 150.477C93.94 148.497 94.8643 146.212 96.84 145.375C98.8157 144.538 101.095 145.464 101.93 147.444C110.823 168.523 131.493 183.296 155.855 183.296C180.215 183.296 201.107 168.372 209.906 147.137C210.729 145.151 213.002 144.21 214.983 145.034Z" fill="#222222"/>
<path fill-rule="evenodd" clip-rule="evenodd" d="M233.262 239.061C238.624 239.061 242.972 243.419 242.972 248.794V330H213.842C208.479 330 204.132 325.643 204.132 320.268C204.132 314.893 208.479 310.535 213.842 310.535H223.552V248.794C223.552 243.419 227.899 239.061 233.262 239.061Z" fill="#F86825"/>
<path fill-rule="evenodd" clip-rule="evenodd" d="M183.043 239.061C188.405 239.061 192.753 243.419 192.753 248.794V330H163.623C158.26 330 153.913 325.643 153.913 320.268C153.913 314.893 158.26 310.535 163.623 310.535H173.333V248.794C173.333 243.419 177.68 239.061 183.043 239.061Z" fill="#F86825"/>
<path fill-rule="evenodd" clip-rule="evenodd" d="M376.018 7.7832C380.308 7.7832 383.786 11.269 383.786 15.569V38.4136L324.767 97.5888C321.734 100.63 316.815 100.631 313.781 97.5907C310.747 94.5506 310.746 89.6209 313.779 86.5798L368.25 31.9651V15.569C368.25 11.269 371.728 7.7832 376.018 7.7832Z" fill="#F86825"/>
</svg>
