<svg width="295" height="330" viewBox="0 0 295 330" fill="none" xmlns="http://www.w3.org/2000/svg">
<path d="M141.293 328.374C201.321 328.374 249.983 320.091 249.983 309.874C249.983 299.656 201.321 291.373 141.293 291.373C81.2657 291.373 32.6038 299.656 32.6038 309.874C32.6038 320.091 81.2657 328.374 141.293 328.374Z" fill="black"/>
<path fill-rule="evenodd" clip-rule="evenodd" d="M109.73 204.615C115.38 204.615 119.961 209.209 119.961 214.875V313.584H85.7036C80.0531 313.584 75.4724 308.991 75.4724 303.325C75.4724 297.659 80.0531 293.066 85.7036 293.066H99.4987V214.875C99.4987 209.209 104.079 204.615 109.73 204.615Z" fill="#F86825"/>
<path fill-rule="evenodd" clip-rule="evenodd" d="M181.126 204.615C186.777 204.615 191.358 209.209 191.358 214.875V313.584H157.117C151.467 313.584 146.886 308.991 146.886 303.325C146.886 297.659 151.467 293.066 157.117 293.066H170.895V214.875C170.895 209.209 175.476 204.615 181.126 204.615Z" fill="#F86825"/>
<path fill-rule="evenodd" clip-rule="evenodd" d="M54.7029 184.422C62.7344 200.922 78.2859 213.575 95.7983 217.833C112.066 220.722 174.971 222.928 191.375 222.039C226.724 217.918 257.571 210.549 267.376 170.727C273.208 155.27 256.599 70.4442 256.053 53.2432C252.523 28.382 233.101 6.82091 209.092 1.12713C195.297 -4.0195 71.772 10.2235 55.5044 10.5826C37.7532 13.0447 21.4003 24.0219 12.2775 39.6499C4.39946 52.9525 1.73934 69.6064 5.06449 84.9437C4.91102 93.7665 50.3547 174.847 54.7029 184.405V184.422Z" fill="#F86825"/>
<path fill-rule="evenodd" clip-rule="evenodd" d="M95.4236 122.099C95.4236 119.266 97.7139 116.969 100.539 116.969H147.586C150.411 116.969 152.701 119.266 152.701 122.099C152.701 124.931 150.411 127.228 147.586 127.228H100.539C97.7139 127.228 95.4236 124.931 95.4236 122.099Z" fill="#222222"/>
<path fill-rule="evenodd" clip-rule="evenodd" d="M165.149 67.041C167.974 67.041 170.264 69.3376 170.264 72.1705V197.759C170.264 200.592 167.974 202.888 165.149 202.888C162.323 202.888 160.033 200.592 160.033 197.759V72.1705C160.033 69.3376 162.323 67.041 165.149 67.041Z" fill="white"/>
<path fill-rule="evenodd" clip-rule="evenodd" d="M82.6339 65.4858C85.4592 65.4858 87.7495 67.7824 87.7495 70.6154V160.981C87.7495 163.814 85.4592 166.11 82.6339 166.11C79.8086 166.11 77.5183 163.814 77.5183 160.981V70.6154C77.5183 67.7824 79.8086 65.4858 82.6339 65.4858Z" fill="white"/>
<path d="M161.09 75.5396C167.118 75.5396 172.004 70.6402 172.004 64.5966C172.004 58.5529 167.118 53.6536 161.09 53.6536C155.063 53.6536 150.177 58.5529 150.177 64.5966C150.177 70.6402 155.063 75.5396 161.09 75.5396Z" fill="#222222"/>
<path d="M78.6953 75.5396C84.7225 75.5396 89.6086 70.6402 89.6086 64.5966C89.6086 58.5529 84.7225 53.6536 78.6953 53.6536C72.668 53.6536 67.782 58.5529 67.782 64.5966C67.782 70.6402 72.668 75.5396 78.6953 75.5396Z" fill="#222222"/>
<path fill-rule="evenodd" clip-rule="evenodd" d="M0 121.022H44.915C49.6238 121.022 53.441 124.849 53.441 129.571C53.441 134.293 49.6238 138.12 44.915 138.12H17.052V277.096H38.3671C43.0758 277.096 46.8931 280.924 46.8931 285.646C46.8931 290.367 43.0758 294.195 38.3671 294.195H0V121.022Z" fill="#F86825"/>
<path fill-rule="evenodd" clip-rule="evenodd" d="M240.979 129.571C240.979 124.849 244.796 121.022 249.505 121.022H294.437V294.195H256.07C251.361 294.195 247.544 290.367 247.544 285.646C247.544 280.924 251.361 277.096 256.07 277.096H277.385V138.12H249.505C244.796 138.12 240.979 134.293 240.979 129.571Z" fill="#F86825"/>
</svg>
