<svg width="360" height="330" viewBox="0 0 360 330" fill="none" xmlns="http://www.w3.org/2000/svg">
<path fill-rule="evenodd" clip-rule="evenodd" d="M71.0209 251.748C90.9771 258.715 211.516 277.204 230.628 280.287C249.511 283.337 269.193 272.528 279.629 256.542C301.141 220.688 291.162 151.916 288.498 109.574C288.224 105.37 287.681 101.306 287.018 97.1603C283.117 73.083 281.686 35.8595 263.836 20.1633C242.346 -1.60804 214.558 5.82012 188.246 11.3031C179.54 13.7108 165.853 15.7566 154.118 19.4415C140.98 23.5666 113.413 34.492 104.497 45.4201C78.2589 77.8538 42.1389 124.682 23.5482 161.91C13.2982 179.355 14.3223 202.504 26.1023 218.977C32.7385 231.248 52.7608 245.379 71.0414 251.765L71.0209 251.748Z" fill="#F86825"/>
<path d="M101.594 137C106.677 137 110.798 131.529 110.798 124.781C110.798 118.032 106.677 112.562 101.594 112.562C96.5113 112.562 92.3907 118.032 92.3907 124.781C92.3907 131.529 96.5113 137 101.594 137Z" fill="#222222"/>
<path d="M171.469 137C176.552 137 180.672 131.529 180.672 124.781C180.672 118.032 176.552 112.562 171.469 112.562C166.386 112.562 162.266 118.032 162.266 124.781C162.266 131.529 166.386 137 171.469 137Z" fill="#222222"/>
<path fill-rule="evenodd" clip-rule="evenodd" d="M205.501 241.581C211.028 241.581 215.508 246.061 215.508 251.588V329.993H186.795C181.268 329.993 176.788 325.513 176.788 319.986C176.788 314.459 181.268 309.978 186.795 309.978H195.494V251.588C195.494 246.061 199.974 241.581 205.501 241.581Z" fill="#F86825"/>
<path fill-rule="evenodd" clip-rule="evenodd" d="M261.646 144.237C262.784 138.829 268.09 135.366 273.499 136.504L346.446 151.844L353.675 178.788C355.107 184.126 351.94 189.614 346.602 191.046C341.264 192.478 335.776 189.312 334.344 183.974L330.3 168.901L269.38 156.09C263.972 154.952 260.509 149.646 261.646 144.237Z" fill="#F86825"/>
<path fill-rule="evenodd" clip-rule="evenodd" d="M157.108 241.581C162.635 241.581 167.115 246.061 167.115 251.588V329.993H138.42C132.893 329.993 128.413 325.513 128.413 319.986C128.413 314.459 132.893 309.978 138.42 309.978H147.101V251.588C147.101 246.061 151.581 241.581 157.108 241.581Z" fill="#F86825"/>
<path d="M110.803 169.615C110.803 169.615 125.815 179.168 136.542 179.168C147.27 179.168 162.282 169.615 162.282 169.615" stroke="#222222" stroke-width="10" stroke-miterlimit="10" stroke-linecap="round"/>
</svg>
