<svg width="383" height="330" viewBox="0 0 383 330" fill="none" xmlns="http://www.w3.org/2000/svg">
<path fill-rule="evenodd" clip-rule="evenodd" d="M19.8125 147.515L19.1242 151.825L18.7801 156.221L18.608 160.531L18.7801 164.928L19.1242 169.238L19.8125 173.548L20.7589 177.858L22.0494 182.081L23.512 186.133L25.2328 190.184L27.2116 194.063L29.4485 197.856L31.8575 201.39L34.5246 204.838L37.4498 208.114L40.547 211.217L43.8164 214.148L47.2578 216.82L50.8713 219.233L108.085 254.231L111.87 256.386L115.742 258.368L119.786 260.092L123.829 261.644L128.045 262.851L132.347 263.799L136.648 264.488L140.95 264.833L145.338 265.006L171.579 265.264L175.967 265.092L180.354 264.661L254.947 255.782L259.335 255.093L263.551 254.144L267.766 252.938L271.81 251.386L275.854 249.662L279.725 247.679L283.511 245.524L287.124 243.025L290.566 240.352L293.835 237.508L296.932 234.405L299.771 231.129L302.525 227.681L304.934 224.061L307.17 220.268L309.149 216.389L328.077 175.444L329.798 171.479L331.26 167.341L332.551 163.117L333.497 158.894L334.186 154.584L334.53 150.187L334.702 145.877L334.53 141.481L334.186 137.171L333.497 132.861L332.551 128.551L331.26 124.327L329.798 120.276L326.27 111.915L324.55 107.863L322.571 103.984L320.334 100.278L310.01 85.0203L307.601 81.3999L304.848 77.952L302.008 74.6764L298.911 71.5732L256.152 29.4214L252.882 26.5768L249.441 23.9047L245.827 21.4049L242.128 19.1637L238.17 17.1811L234.213 15.4571L230.083 13.9917L225.867 12.7849L221.651 11.8367L217.35 11.1471L212.962 10.7161L208.66 10.6299L204.272 10.7161L199.884 11.1471L195.583 11.8367L191.367 12.7849L187.151 13.9917L183.022 15.4571L179.064 17.1811L128.131 41.9204L124.259 43.903L58.5284 78.5554L54.8289 80.7966L51.2154 83.2102L47.688 85.8823L44.4186 88.8131L41.4074 91.9163L38.4822 95.1919L35.8151 98.6399L33.3201 102.174L31.1692 105.967L29.1043 109.846L27.3836 113.897L25.921 117.949L24.7165 122.172L23.7702 126.482L19.8125 147.515Z" fill="#F86825"/>
<path d="M65.5523 87.1995L27.0223 15.2926L7.98303 9.51416" stroke="#F86825" stroke-width="15.9677" stroke-miterlimit="10" stroke-linecap="round"/>
<path d="M305.483 101.603L352.954 35.2456L372.596 32.0056" stroke="#F86825" stroke-width="15.9677" stroke-miterlimit="10" stroke-linecap="round"/>
<path d="M207.712 223.101L237.748 286.091L264.122 290.809L264.345 317.272" stroke="#F86825" stroke-width="15.9677" stroke-miterlimit="10" stroke-linecap="round"/>
<path d="M168.998 261.213V321.38H149.296" stroke="#F86825" stroke-width="15.9677" stroke-miterlimit="10" stroke-linecap="round"/>
<path d="M112.311 135.079C118.051 135.079 122.704 128.857 122.704 121.182C122.704 113.506 118.051 107.284 112.311 107.284C106.57 107.284 101.917 113.506 101.917 121.182C101.917 128.857 106.57 135.079 112.311 135.079Z" fill="#222222"/>
<path d="M161.851 135.079C167.591 135.079 172.245 128.857 172.245 121.182C172.245 113.506 167.591 107.284 161.851 107.284C156.111 107.284 151.457 113.506 151.457 121.182C151.457 128.857 156.111 135.079 161.851 135.079Z" fill="#222222"/>
<path fill-rule="evenodd" clip-rule="evenodd" d="M199.147 155.678C201.129 156.503 202.068 158.781 201.245 160.767C191.28 184.806 167.614 201.726 139.995 201.726C112.378 201.726 88.9554 184.966 78.8908 161.121C78.055 159.14 78.9797 156.856 80.9562 156.019C82.9327 155.182 85.2125 156.108 86.0483 158.088C94.9452 179.167 115.623 193.94 139.995 193.94C164.365 193.94 185.266 179.016 194.068 157.78C194.891 155.795 197.165 154.854 199.147 155.678Z" fill="#222222"/>
</svg>
