<svg width="265" height="330" viewBox="0 0 265 330" fill="none" xmlns="http://www.w3.org/2000/svg">
<path d="M33.4797 132.415C18.636 118.479 11.0562 101.224 10.7404 80.6357V77.7849C11.0562 60.6806 16.4252 46.1103 26.8474 34.0739C37.2696 21.7208 50.6838 13.9688 67.1067 10.8014C78.1606 9.21762 88.8986 10.0178 99.3208 13.1686C109.427 16.3361 118.42 21.8875 126.315 29.7895L132 35.4909L137.685 29.7895C145.581 21.8708 154.573 16.3361 164.68 13.1686C175.102 10.0012 185.84 9.21762 196.894 10.8014C213.317 13.9688 226.731 21.7208 237.153 34.0739C247.575 46.1103 252.944 60.6806 253.26 77.7849V80.6357C252.944 101.224 245.365 118.495 230.521 132.415L145.248 212.702C141.458 216.187 137.037 217.92 131.984 217.92C126.931 217.92 122.509 216.17 118.719 212.702L33.4465 132.415H33.4797Z" stroke="#F86825" stroke-width="20.0051" stroke-linecap="round" stroke-linejoin="round"/>
<path fill-rule="evenodd" clip-rule="evenodd" d="M72.3755 273.568C89.4632 276.368 189.347 274.101 205.188 273.868C220.863 273.634 235.175 262.031 241.292 247.561C253.492 215.353 235.574 160.922 227.329 126.897C226.514 123.53 225.484 120.296 224.354 117.028C217.754 98.0399 211.255 67.999 194.6 57.8131C174.137 43.2094 152.794 53.2286 132.365 61.4473C125.683 64.6482 114.945 68.2657 106.002 72.9502C95.9958 78.1849 75.3343 91.0215 69.7159 101.174C53.2099 131.282 30.803 174.493 21.162 207.401C15.3941 223.038 19.5497 241.693 31.4014 253.379C38.5158 262.398 56.7006 271 72.3589 273.568H72.3755Z" fill="#F86825"/>
<path d="M177.03 247.145L187.918 286.255L213.998 288.989V306.526" stroke="#F86825" stroke-width="16.6709" stroke-miterlimit="10" stroke-linecap="round"/>
<path d="M134.311 252.496V321.664H114.63" stroke="#F86825" stroke-width="16.6709" stroke-miterlimit="10" stroke-linecap="round"/>
<path d="M85.1251 146.719C82.532 144.285 81.2022 141.267 81.1523 137.666V137.166C81.2022 134.182 82.1497 131.631 83.9615 129.514C85.79 127.347 88.1337 125.997 91.0094 125.447C92.9376 125.163 94.8159 125.313 96.6444 125.863C98.4063 126.413 99.9855 127.38 101.365 128.764L102.362 129.764L103.36 128.764C104.739 127.38 106.319 126.413 108.081 125.863C109.909 125.313 111.787 125.163 113.716 125.447C116.591 125.997 118.935 127.364 120.763 129.514C122.592 131.615 123.523 134.165 123.573 137.166V137.666C123.523 141.267 122.193 144.285 119.6 146.719L104.69 160.755C104.025 161.372 103.26 161.672 102.362 161.672C101.465 161.672 100.7 161.372 100.035 160.755L85.1251 146.719Z" fill="#222222"/>
<path d="M150.9 146.719C148.307 144.285 146.977 141.267 146.927 137.666V137.166C146.977 134.182 147.924 131.631 149.736 129.514C151.565 127.347 153.908 125.997 156.784 125.447C158.712 125.163 160.59 125.313 162.419 125.863C164.181 126.413 165.76 127.38 167.14 128.764L168.137 129.764L169.134 128.764C170.514 127.38 172.093 126.413 173.855 125.863C175.684 125.313 177.562 125.163 179.49 125.447C182.366 125.997 184.709 127.364 186.538 129.514C188.366 131.615 189.297 134.165 189.347 137.166V137.666C189.297 141.267 187.967 144.285 185.374 146.719L170.464 160.755C169.799 161.372 169.035 161.672 168.137 161.672C167.239 161.672 166.475 161.372 165.81 160.755L150.9 146.719Z" fill="#222222"/>
<path d="M126.714 179.744C125.534 178.627 124.919 177.26 124.902 175.61V175.376C124.936 174.009 125.351 172.842 126.182 171.892C127.013 170.909 128.077 170.292 129.39 170.042C130.271 169.908 131.136 169.975 131.967 170.225C132.781 170.475 133.496 170.925 134.128 171.559L134.577 172.009L135.025 171.559C135.657 170.925 136.372 170.492 137.186 170.225C138.017 169.975 138.882 169.908 139.763 170.042C141.076 170.292 142.14 170.909 142.971 171.892C143.802 172.859 144.234 174.009 144.251 175.376V175.61C144.218 177.26 143.619 178.627 142.439 179.744L135.64 186.146C135.341 186.429 134.992 186.563 134.577 186.563C134.161 186.563 133.829 186.429 133.513 186.146L126.714 179.744Z" fill="#222222"/>
</svg>
