<svg width="366" height="330" viewBox="0 0 366 330" fill="none" xmlns="http://www.w3.org/2000/svg">
<path fill-rule="evenodd" clip-rule="evenodd" d="M141.682 266.973C131.797 268.212 121.603 262.819 116.606 254.218C113.542 251.175 102.819 198.914 101.324 193.884L80.4606 99.9308C80.2418 99.129 80.0777 97.5072 79.95 96.669L79.8406 95.029C79.8588 91.9859 80.5153 34.823 81.4454 27.024C82.2296 20.5004 85.2752 14.1591 90.2173 9.82224C94.7219 5.83159 100.74 3.46271 106.758 3.28049C113.415 3.08005 175.821 1.85916 201.827 6.76092C213.407 8.94758 253.455 18.9698 258.981 31.2333C261.443 35.1146 337.783 178.596 339.916 182.787C342.761 187.998 348.597 196.126 348.506 205.364C348.397 216.461 338.676 229.636 328.044 232.807C282.653 246.328 188.678 261.106 141.682 266.991V266.973Z" fill="#F86825" stroke="#F86825" stroke-width="3" stroke-miterlimit="10"/>
<path d="M237.644 216.797L251.85 267.655L285.899 275.545V298.323" stroke="#F86825" stroke-width="24" stroke-miterlimit="10" stroke-linecap="round"/>
<path d="M181.912 223.755V318H156.216" stroke="#F86825" stroke-width="24" stroke-miterlimit="10" stroke-linecap="round"/>
<path d="M112.977 183.564L37.9146 108.562H12" stroke="#F86825" stroke-width="24" stroke-miterlimit="10" stroke-linecap="round"/>
<path d="M259.967 152.877L296.131 108.798L327.279 70.8593L353.066 68.3264" stroke="#F86825" stroke-width="24" stroke-miterlimit="10" stroke-linecap="round"/>
<path d="M124.741 88.9263L121.459 68.226V54.8145H140.334V68.226L137.051 88.9263H124.741ZM130.905 109.627C128.389 109.627 126.255 108.807 124.504 107.167C122.753 105.527 121.878 103.54 121.878 101.19C121.878 98.8392 122.753 96.7801 124.504 95.1765C126.255 93.573 128.389 92.7712 130.905 92.7712C133.422 92.7712 135.629 93.573 137.343 95.1765C139.075 96.7801 139.933 98.7845 139.933 101.19C139.933 103.595 139.075 105.527 137.343 107.167C135.61 108.807 133.477 109.627 130.905 109.627Z" fill="#222222"/>
<path d="M189.355 88.9263L186.072 68.226V54.8145H204.947V68.226L201.665 88.9263H189.355ZM195.519 109.627C193.002 109.627 190.869 108.807 189.118 107.167C187.367 105.527 186.492 103.54 186.492 101.19C186.492 98.8392 187.367 96.7801 189.118 95.1765C190.869 93.573 193.002 92.7712 195.519 92.7712C198.036 92.7712 200.242 93.573 201.957 95.1765C203.689 96.7801 204.546 98.7845 204.546 101.19C204.546 103.595 203.689 105.527 201.957 107.167C200.224 108.807 198.09 109.627 195.519 109.627Z" fill="#222222"/>
<path d="M186.07 123.423H138.125V135.085H186.07V123.423Z" fill="#222222"/>
</svg>
