<svg width="136" height="136" viewBox="0 0 136 136" fill="none" xmlns="http://www.w3.org/2000/svg">
<path fill-rule="evenodd" clip-rule="evenodd" d="M4.60749 118.682L4.76637 119.794L4.92525 121.065L5.24299 122.178L5.56075 123.29L6.0374 124.402L6.51402 125.514L7.14954 126.626L7.78504 127.579L8.57945 128.533L9.21495 129.486L10.1682 130.439L10.9626 131.234L11.9159 132.028L12.8692 132.664L13.9813 133.299L14.9346 133.935L16.0467 134.411L17.1589 134.888L18.271 135.206L19.5421 135.523L20.6542 135.841L21.9252 136H23.0374H24.3084H25.4206L26.6916 135.841L27.8037 135.523L29.0748 135.206L66.8878 124.561L68 124.084L119.635 105.336L120.748 104.86L121.86 104.383L122.813 103.748L123.925 103.112L124.878 102.477L125.832 101.682L126.626 100.888L127.421 99.9346L128.215 99.1402L129.009 98.028L129.645 97.0747L130.122 95.9626L130.757 94.8505L131.075 93.7383L131.551 92.6262L131.869 91.514L132.028 90.243L132.187 89.1308L132.346 87.8598L136 19.7009V18.5888V17.3178L135.841 16.2056L135.523 14.9346L135.206 13.8224L134.888 12.7103L134.411 11.5981L133.935 10.486L133.299 9.37383L132.664 8.42056L132.028 7.30841L131.234 6.51402L130.439 5.56075L129.486 4.76636L128.533 3.97196L127.579 3.33645L126.626 2.70094L125.514 2.06542L124.402 1.58879L123.29 1.11214L122.178 0.794395L121.065 0.476631L119.794 0.158882L118.682 0H117.411H116.14H115.028L113.757 0.158882L112.645 0.476631L81.5047 6.83178L80.3925 7.14953L79.2804 7.46729L78.0093 7.94392L77.0561 8.42056L75.9439 9.05607L74.9907 9.69158L8.42057 53.8598L7.30843 54.6542L6.51402 55.2897L5.56075 56.243L4.76637 57.0374L3.97196 57.9907L3.33646 58.9439L2.54205 59.8972L2.06544 61.0093L1.58879 62.1215L1.11214 63.2336L0.635528 64.3458L0.476646 65.6168L0.158882 66.729L0 68V69.1121V70.3832V71.4953L4.60749 118.682Z" fill="#222222"/>
</svg>
