<svg width="136" height="136" viewBox="0 0 136 136" fill="none" xmlns="http://www.w3.org/2000/svg">
<path fill-rule="evenodd" clip-rule="evenodd" d="M32.2523 133.935L33.8411 134.57L35.4299 135.047L37.0187 135.364L38.6075 135.682L40.1963 136H41.9439H43.5327L110.421 134.093H112.168L113.757 133.935L115.346 133.617L116.935 133.14L118.523 132.664L120.112 132.028L121.542 131.234L123.131 130.439L124.402 129.645L125.832 128.692L127.103 127.579L128.215 126.467L129.486 125.196L130.439 123.925L131.393 122.654L132.346 121.224L133.14 119.794L133.776 118.364L134.411 116.776L135.047 115.187L135.364 113.598L135.682 112.009L135.841 110.262L136 108.673V106.925L135.682 89.2897L135.523 87.7009L135.364 85.9533L135.047 84.3645L124.72 42.8972L124.402 41.3084L123.766 39.7196L115.822 17.4766L115.187 15.8878L114.393 14.2991L113.598 12.8692L112.804 11.5981L111.85 10.1682L110.738 8.89719L109.626 7.78505L108.355 6.51402L107.084 5.56075L105.813 4.60748L104.383 3.65421L102.953 2.85981L101.364 2.2243L99.9346 1.58878L98.3458 1.11215L96.757 0.635514L95.0093 0.317757L93.4206 0H91.8317H90.0841H88.4953L86.9065 0.317757L85.1589 0.635514L83.5701 1.11215L81.9813 1.58878L68.3177 6.6729L58.4673 10.6449L56.8785 11.2804L55.2897 11.9159L53.8598 12.7103L52.4299 13.6635L37.6542 23.514L36.3832 24.4673L35.1122 25.5794L33.8411 26.6916L32.729 27.9626L31.6168 29.2336L30.6636 30.5047L29.8692 31.9346L29.0748 33.3645L14.1402 62.4392L13.3458 63.8691L8.10281 75.4673L7.46731 77.0561L1.42991 94.2149L0.953293 95.8037L0.635528 97.3925L0.317764 98.9813L0 100.729V102.318V103.907V105.654L0.317764 107.243L0.635528 108.832L0.953293 110.579L1.42991 112.009L2.06544 113.598L2.85982 115.187L3.65423 116.617L4.44861 117.888L5.40187 119.318L6.51402 120.589L7.62619 121.86L8.89722 122.972L10.1682 123.925L11.4393 124.878L12.8692 125.832L14.2991 126.626L15.8878 127.262L32.2523 133.935Z" fill="#222222"/>
</svg>
