<svg width="136" height="136" viewBox="0 0 136 136" fill="none" xmlns="http://www.w3.org/2000/svg">
<path fill-rule="evenodd" clip-rule="evenodd" d="M93.6289 135.206L94.7398 135.523L95.8506 135.841L97.1202 136H98.2311H99.5006H100.611L101.881 135.841L102.992 135.523L106.007 134.888L107.118 134.57L108.229 134.252L123.463 129.168L124.574 128.692L125.685 128.215L126.637 127.579L127.748 126.944L128.7 126.308L129.494 125.514L130.446 124.72L131.239 123.925L132.033 122.972L132.667 122.019L133.302 120.907L133.937 119.953L134.413 118.841L134.889 117.729L135.207 116.617L135.524 115.505L135.683 114.234L135.841 113.121L136 111.85V110.738L135.841 109.467L135.683 108.355L135.524 107.243L122.035 49.4112L121.718 48.1402L121.4 47.028L120.924 45.9159L120.448 44.8037L119.813 43.8505L119.179 42.8972L118.544 41.785L117.75 40.9907L116.957 40.0374L116.005 39.243L115.211 38.4486L114.259 37.8131L113.148 37.1776L79.0292 17L77.9183 16.3645L76.9662 15.8878L75.8553 15.4112L46.3384 3.81308L45.2275 3.49533L44.1167 3.17757L30.6278 0.476631L29.3582 0.158882L28.2474 0H27.1365H25.867H24.7561L23.4866 0.158882L22.3757 0.476631L21.2649 0.635513L19.9953 1.11214L18.8845 1.58879L17.9323 2.06542L16.8215 2.54205L15.8693 3.17757L14.9172 3.97196L13.965 4.76636L13.0128 5.56075L12.2194 6.35515L11.5846 7.30841L10.7911 8.26169L10.1564 9.21495L9.68029 10.3271L9.0455 11.4393L8.72811 12.5514L8.25205 13.6635L7.93466 14.7757L7.77596 15.8878L0.47609 64.9813L0.317394 66.2523V67.3645L0 94.215V95.3271L0.158697 96.5981L0.317394 97.7103L0.47609 98.9813L0.793454 100.093L1.11085 101.206L1.58694 102.318L2.063 103.43L2.69778 104.383L3.33254 105.495L3.96733 106.449L4.76078 107.243L5.55427 108.196L6.50642 108.991L7.45857 109.785L8.41075 110.421L9.3629 111.056L10.4737 111.692L11.4259 112.168L12.5367 112.645L13.6476 112.963L93.6289 135.206Z" fill="#222222"/>
</svg>
