<svg width="136" height="135" viewBox="0 0 136 135" fill="none" xmlns="http://www.w3.org/2000/svg">
<path fill-rule="evenodd" clip-rule="evenodd" d="M1.74562 91.9451L1.90432 93.9953L2.06301 96.0456L2.53909 98.0958L3.01516 100.146L3.64993 102.039L4.4434 104.089L5.39557 105.981L6.34772 107.716L7.45858 109.609L8.72812 111.186L15.8693 120.175L17.1389 121.91L18.5671 123.329L20.154 124.749L21.741 126.168L23.4866 127.43L25.2322 128.534L27.1365 129.48L29.0408 130.426L30.9452 131.215L33.0082 131.846L35.0712 132.319L37.1342 132.792L39.1972 132.95L41.2602 133.107L58.0817 134.054L86.329 135H88.3921L90.4551 134.842L92.5181 134.685L94.5811 134.211L96.6441 133.738L98.7071 133.107L100.611 132.319L102.516 131.373L104.42 130.426L106.166 129.322L107.911 128.061L109.498 126.799L111.085 125.222L112.513 123.803L113.783 122.225L115.052 120.491L122.511 109.766L123.622 108.032L124.574 106.297L125.526 104.404L133.144 87.2138L133.937 85.3213L134.572 83.271L135.207 81.3785L135.524 79.3283L135.841 77.1203L136 75.0701V73.0199L135.841 70.9696L135.524 68.7617L129.811 37.8505L129.494 35.8002L129.017 33.9077L128.224 31.8575L127.589 29.965L123.463 20.0292L122.67 18.1367L121.559 16.4019L120.448 14.5093L119.179 12.9322L117.909 11.1974L116.481 9.77804L114.894 8.35864L113.307 6.93925L111.561 5.67757L109.816 4.5736L107.911 3.62734L106.007 2.68107L104.103 1.89252L102.04 1.26168L99.9767 0.788551L97.9136 0.473131L95.8506 0H93.7876H91.7246H89.5029L87.4399 0.473131L85.3769 0.788551L44.4341 9.46262L42.3711 9.93575L40.4667 10.5666L38.4037 11.3551L36.4994 12.3014L34.7538 13.2477L33.0082 14.3516L31.2625 15.6133L29.6756 16.875L28.0887 18.4521L26.6604 19.8715L10.6324 38.0082L8.41073 40.5315L6.98249 42.2664L5.87164 43.8435L4.7608 45.736L3.64993 47.4708L2.85648 49.3633L2.06301 51.4135L1.42824 53.3061L0.793469 55.3563L0.476075 57.4065L0.158697 59.4568L0 61.6647V63.715L1.74562 91.9451Z" fill="#222222"/>
</svg>
