<svg width="136" height="136" viewBox="0 0 136 136" fill="none" xmlns="http://www.w3.org/2000/svg">
<path fill-rule="evenodd" clip-rule="evenodd" d="M1.27103 82.7757V84.2056L1.58879 85.7944L3.97196 103.43L4.28972 105.019L4.60748 106.449L5.08411 107.878L5.71963 109.308L10.6449 120.589L11.4393 122.019L12.0748 123.29L12.8692 124.561L13.8224 125.832L14.7757 126.944L15.729 128.056L16.8411 129.168L18.1121 130.121L19.2243 130.916L20.4953 131.71L21.9252 132.505L23.1963 133.14L24.6262 133.776L26.0561 134.093L27.486 134.57L29.0748 134.888L30.5047 135.047L39.243 135.841H40.8318L54.3364 136H55.7664L57.3551 135.841L58.785 135.682L60.215 135.364L61.8037 135.047L63.2336 134.57L64.6636 134.093L77.215 128.533L78.6449 127.897L79.9159 127.262L91.1963 120.271L92.4673 119.477L93.7383 118.523L94.8505 117.57L95.9626 116.617L96.9159 115.505L130.121 77.3738L131.075 76.1028L131.869 74.9907L132.664 73.7196L133.458 72.2897L134.093 71.0187L134.57 69.5888L135.047 68.1589L135.523 66.729L135.682 65.1402L136 63.7103V62.2804V60.6916V59.2617L135.682 57.6729L135.523 56.243L135.047 54.8131L134.57 53.3832L134.093 51.9533L119.636 16.6822L119 15.4112L118.206 13.9813L117.411 12.7103L116.458 11.5981L115.505 10.3271L114.551 9.21495L113.439 8.26169L112.327 7.30841L111.056 6.35515L109.785 5.56075L108.514 4.92524L107.084 4.13084L101.523 1.90654L100.093 1.42991L98.6635 0.953278L97.2336 0.476631L95.8037 0.317764L94.2149 0H92.785H91.1963H89.7664L88.3364 0.317764L45.9159 8.10281L44.486 8.42056L43.0561 8.73832L41.6262 9.21495L40.1963 9.85047L38.7664 10.486L37.4953 11.2804L36.2243 12.0748L34.9533 12.8692L33.8411 13.8224L32.729 14.9346L31.6168 16.0467L6.03738 44.8037L5.08411 45.9159L4.13084 47.1869L3.33645 48.4579L2.54206 49.8879L1.90654 51.1589L1.42991 52.5888L0.953271 54.0187L0.635514 55.4486L0.317757 57.0374L0 58.4673V59.8972V61.486L1.27103 82.7757Z" fill="#222222"/>
</svg>
