<svg width="136" height="136" viewBox="0 0 136 136" fill="none" xmlns="http://www.w3.org/2000/svg">
<path fill-rule="evenodd" clip-rule="evenodd" d="M3.80863 96.2804L4.12602 98.028L4.6021 99.6168L5.07817 101.206L5.71295 102.794L6.34772 104.224L10.6324 112.486L11.4259 114.075L12.3781 115.346L13.3302 116.776L14.4411 118.047L22.217 127.103L23.3279 128.215L24.5974 129.327L25.867 130.439L27.1365 131.393L28.5648 132.346L29.993 133.14L31.5799 133.776L33.0082 134.411L34.5951 135.047L36.3407 135.364L37.9277 135.682L39.5146 135.841L41.2602 136H42.8471L44.5928 135.841L46.1797 135.682L47.7666 135.364L49.3535 135.047L50.9405 134.411L52.5274 133.776L54.1143 133.14L71.2532 124.72L101.088 109.15L102.516 108.196L103.944 107.402L105.214 106.449L106.483 105.336L107.753 104.224L108.863 102.953L109.974 101.682L110.926 100.411L111.72 98.9813L112.672 97.5514L131.557 61.8037L132.35 60.3738L132.985 58.785L133.461 57.1963L133.778 55.6075L134.096 53.8598L134.413 52.271L135.841 38.7664L136 37.1776V35.4299L135.841 33.8411L135.683 32.2523L135.365 30.5047L134.889 28.9159L134.413 27.3271L133.778 25.7383L132.985 24.3084L132.191 22.8785L131.398 21.4486L130.446 20.0187L129.335 18.7477L128.224 17.6355L126.954 16.5234L125.685 15.4112L124.415 14.4579L122.987 13.5047L121.559 12.7103L119.972 12.0748L98.0723 2.06542L96.4854 1.58879L94.8985 0.953278L93.3115 0.635513L91.7246 0.317764L89.979 0H88.3921H86.8051H85.0595L83.4726 0.317764L81.7269 0.635513L80.14 0.953278L78.5531 1.58879L26.0257 19.5421L24.4387 20.1776L23.0105 20.8131L21.5823 21.7664L20.154 22.5607L18.7258 23.514L17.4562 24.6262L16.3454 25.7383L15.0758 27.0093L14.1237 28.2804L13.1715 29.5514L12.2194 30.9813L11.4259 32.4112L10.7911 34L2.22171 55.2897L1.58694 56.7196L1.11085 58.3084L0.634772 59.8972L0.317378 61.6449L0.158697 63.2337L0 64.8224V66.5701L0.158697 68.1589L0.317378 69.9065L3.80863 96.2804Z" fill="#222222"/>
</svg>
