<svg width="136" height="136" viewBox="0 0 136 136" fill="none" xmlns="http://www.w3.org/2000/svg">
<path fill-rule="evenodd" clip-rule="evenodd" d="M0.317394 61.0093V62.5981L2.063 86.1121L2.22169 87.7009L2.53909 89.2897L3.01518 90.8785L3.49124 92.3084L5.71296 99.2991L6.34772 100.729L6.98251 102.159L7.77596 103.589L8.56941 105.019L9.52159 106.29L10.6324 107.561L11.7433 108.673L12.8541 109.785L14.1237 110.897L15.3932 111.85L16.8215 112.645L18.2497 113.439L19.6779 114.075L21.1062 114.71L72.5228 134.57L73.951 135.047L75.5379 135.364L77.1249 135.682L78.7118 136H80.2987H82.0443H83.6313L85.2182 135.682L86.8051 135.364L88.3921 135.047L89.8203 134.57L107.594 128.692L109.022 128.215L110.45 127.421L111.879 126.626L113.307 125.832L114.576 124.879L115.846 123.925L116.957 122.813L118.068 121.542L119.02 120.271L119.972 119L120.924 117.729L121.718 116.299L122.352 114.71L122.987 113.28L126.002 105.019L126.478 103.589L126.796 102L133.302 75.6262L133.62 74.0374L133.778 72.4486L135.841 48.7757L136 47.1869V45.5981L135.841 44.0093L135.683 42.4206L135.365 40.8318L134.889 39.243L134.413 37.6542L133.937 36.2243L133.144 34.6355L132.35 33.3645L131.557 31.9346L130.604 30.6635L129.494 29.3925L117.909 16.2056L116.798 15.0935L115.687 13.9813L114.418 12.8692L113.148 11.9159L111.72 11.1215L110.292 10.3271L108.863 9.69159L107.435 9.05607L85.0595 1.42991L83.4726 0.953271L81.8856 0.635514L80.4574 0.317757L78.7118 0H77.1249H75.5379H73.951L72.3641 0.317757L47.1318 4.92523L45.5449 5.24299L43.958 5.71963L42.5298 6.19626L40.9428 6.83178L39.5146 7.46729L38.0863 8.26168L12.6954 24.3084L11.2672 25.1028L9.99765 26.0561L8.72811 27.1682L7.61726 28.2804L6.50642 29.3925L5.39557 30.6635L4.44342 31.9346L3.64993 33.3645L2.85648 34.7944L2.22169 36.2243L1.58694 37.6542L1.11085 39.243L0.634757 40.8318L0.317394 42.4206L0.158697 44.0093L0 45.5981V47.1869L0.317394 61.0093Z" fill="#222222"/>
</svg>
