<svg width="1750" height="260" viewBox="0 0 1750 260" fill="none" xmlns="http://www.w3.org/2000/svg">
<path d="M0 252.859V7.14102H86.0175C111.336 7.14102 133.733 12.6591 153.858 23.3707C173.658 34.0823 189.238 49.0137 200.599 67.8401C211.96 86.6666 217.478 107.116 217.478 129.838C217.478 152.559 211.96 173.333 200.599 191.835C189.238 210.662 173.658 225.268 153.858 236.305C134.057 247.341 111.336 252.534 86.0175 252.534H0V252.859ZM86.0175 211.311C103.221 211.311 118.477 207.74 131.461 200.924C144.444 194.107 154.507 184.369 161.323 172.035C168.14 159.7 171.71 145.743 171.71 129.838C171.71 113.933 168.14 99.975 161.323 87.6404C154.507 75.3058 144.444 65.8926 131.461 58.7515C118.477 51.935 103.221 48.3645 86.0175 48.3645H44.1448V211.311H86.0175Z" fill="#222222"/>
<path d="M318.427 257.403C303.171 257.403 289.213 253.508 276.554 245.718C263.895 237.928 253.833 226.891 246.367 212.609C238.901 198.327 235.006 182.097 235.006 164.245C235.006 146.392 238.901 130.162 246.367 115.88C253.833 101.598 263.895 90.5619 276.554 82.7716C289.213 74.9813 303.171 71.0862 318.427 71.0862C328.814 71.0862 338.227 72.7092 346.342 76.2797C354.457 79.8503 360.949 83.7454 366.467 88.6143C371.66 93.1586 375.555 97.3784 377.503 100.624H378.477V75.6305H419.051V253.184H378.477V228.19H377.503C375.231 231.436 371.66 235.331 366.467 240.2C361.273 245.069 354.457 248.964 346.342 252.534C338.227 256.105 328.814 257.728 318.427 257.728V257.403ZM327.191 221.698C336.929 221.698 345.693 219.426 353.483 214.557C361.273 210.013 367.441 203.196 371.66 194.432C375.88 185.668 378.477 175.606 378.477 163.92C378.477 152.235 376.205 142.497 371.66 133.408C367.116 124.32 361.273 117.828 353.483 113.283C345.693 108.739 336.929 106.142 327.191 106.142C317.453 106.142 309.338 108.415 301.873 113.283C294.407 118.152 288.24 124.644 283.695 133.408C279.151 142.172 276.879 152.235 276.879 163.92C276.879 175.606 279.151 185.343 283.695 194.432C288.24 203.196 294.082 210.013 301.873 214.557C309.663 219.101 318.102 221.698 327.191 221.698Z" fill="#222222"/>
<path d="M470.012 252.859V111.011H447.29V75.3059H470.012V36.6792H510.586V75.3059H563.495V111.011H510.586V216.829H565.443V252.534H470.012V252.859Z" fill="#222222"/>
<path d="M665.419 257.403C650.163 257.403 636.205 253.508 623.546 245.718C610.887 237.928 600.825 226.891 593.359 212.609C585.893 198.327 581.998 182.097 581.998 164.245C581.998 146.392 585.893 130.162 593.359 115.88C600.825 101.598 610.887 90.5619 623.546 82.7716C636.205 74.9813 650.163 71.0862 665.419 71.0862C675.806 71.0862 685.219 72.7092 693.334 76.2797C701.449 79.8503 707.941 83.7454 713.459 88.6143C718.652 93.1586 722.547 97.3784 724.495 100.624H725.469V75.6305H766.043V253.184H725.469V228.19H724.495C722.223 231.436 718.652 235.331 713.459 240.2C708.265 245.069 701.449 248.964 693.334 252.534C685.219 256.105 675.806 257.728 665.419 257.728V257.403ZM674.183 221.698C683.921 221.698 692.685 219.426 700.475 214.557C708.265 210.013 714.432 203.196 718.652 194.432C722.872 185.668 725.469 175.606 725.469 163.92C725.469 152.235 723.197 142.497 718.652 133.408C714.108 124.32 708.265 117.828 700.475 113.283C692.685 108.739 683.921 106.142 674.183 106.142C664.445 106.142 656.33 108.415 648.864 113.283C641.399 118.152 635.232 124.644 630.687 133.408C626.143 142.172 623.871 152.235 623.871 163.92C623.871 175.606 626.143 185.343 630.687 194.432C635.232 203.196 641.074 210.013 648.864 214.557C656.655 219.101 665.094 221.698 674.183 221.698Z" fill="#222222"/>
<path d="M960.474 259.675C935.155 259.675 912.434 254.157 892.309 242.797C872.184 231.436 856.603 216.18 845.243 196.38C833.882 176.579 828.364 154.507 828.364 129.838C828.364 105.169 833.882 83.0962 845.243 63.2959C856.603 43.4957 872.184 27.9152 892.309 16.879C912.434 5.51816 935.155 4.19617e-05 960.474 4.19617e-05C983.52 4.19617e-05 1003.64 4.21977 1020.52 12.9838C1037.4 21.7479 1051.04 32.7841 1061.42 46.7416C1071.81 60.6992 1078.95 75.6305 1083.49 91.5356H1038.38C1032.86 77.5781 1023.77 65.5681 1010.79 55.8303C997.802 46.0924 980.923 41.2235 960.474 41.2235C944.244 41.2235 929.313 45.1186 916.329 52.5843C903.345 60.05 892.958 70.437 885.492 83.7454C878.027 97.0537 874.456 112.31 874.456 129.838C874.456 147.366 878.027 162.946 885.168 176.255C892.309 189.563 902.696 199.95 915.68 207.416C928.663 214.881 943.595 218.452 960.474 218.452C981.248 218.452 998.451 212.934 1011.76 202.222C1025.07 191.511 1034.48 178.202 1040 162.946H1085.12C1080.25 180.15 1072.46 195.73 1061.75 210.662C1051.04 225.268 1037.08 237.278 1019.87 246.367C1002.67 255.456 982.871 260 960.149 260L960.474 259.675Z" fill="#222222"/>
<path d="M1118.55 252.859V7.14102H1159.13V252.859H1118.55Z" fill="#222222"/>
<path d="M1226.32 48.04C1219.5 48.04 1213.66 45.7678 1208.79 40.8989C1203.92 36.03 1201.65 30.8365 1201.65 24.3446C1201.65 17.8527 1203.92 12.6592 1208.79 7.79029C1213.66 2.92137 1219.5 0.649204 1226.32 0.649204C1233.13 0.649204 1238.98 2.92137 1243.85 7.79029C1248.71 12.3346 1250.99 17.8527 1250.99 24.3446C1250.99 30.8365 1248.71 36.03 1243.85 40.8989C1238.98 45.4432 1233.13 48.04 1226.32 48.04ZM1205.87 252.534V74.9813H1246.44V252.534H1205.87Z" fill="#222222"/>
<path d="M1292.86 252.859V75.3059H1333.43V100.624H1334.41C1339.6 92.1848 1347.07 85.0438 1357.13 79.5257C1367.19 74.0076 1378.55 71.0862 1392.18 71.0862C1413.93 71.0862 1431.14 77.5781 1443.47 90.8865C1456.13 104.195 1462.3 122.697 1462.3 146.392V253.184H1421.72V151.261C1421.72 136.654 1418.15 125.293 1411.01 117.828C1403.87 110.362 1393.81 106.467 1380.82 106.467C1372.06 106.467 1364.27 108.739 1357.13 112.959C1349.99 117.179 1344.47 123.346 1340.25 131.136C1336.03 138.926 1334.08 148.015 1334.08 158.077V252.859H1293.51H1292.86Z" fill="#222222"/>
<path d="M1518.45 48.04C1511.64 48.04 1505.79 45.7678 1500.92 40.8989C1496.06 36.03 1493.78 30.8365 1493.78 24.3446C1493.78 17.8527 1496.06 12.6592 1500.92 7.79029C1505.79 2.92137 1511.64 0.649204 1518.45 0.649204C1525.27 0.649204 1531.11 2.92137 1535.98 7.79029C1540.85 12.3346 1543.12 17.8527 1543.12 24.3446C1543.12 30.8365 1540.85 36.03 1535.98 40.8989C1531.11 45.4432 1525.27 48.04 1518.45 48.04ZM1498 252.534V74.9813H1538.58V252.534H1498Z" fill="#222222"/>
<path d="M1659.97 257.403C1642.77 257.403 1627.19 253.184 1612.91 245.069C1598.63 236.954 1587.27 225.593 1579.15 211.311C1571.04 197.029 1566.82 181.124 1566.82 163.92C1566.82 146.717 1571.04 130.811 1579.15 116.529C1587.27 102.247 1598.63 90.8864 1612.91 82.7716C1627.19 74.6567 1642.77 70.437 1659.97 70.437C1677.18 70.437 1691.14 73.6829 1703.15 79.8502C1715.16 86.0175 1725.22 94.4569 1732.36 104.519C1739.5 114.582 1745.02 125.618 1748.26 137.303H1706.39C1703.15 128.539 1697.63 121.398 1689.51 115.231C1681.4 109.388 1671.66 106.142 1659.65 106.142C1650.24 106.142 1641.8 108.739 1634.01 113.608C1626.22 118.477 1620.05 125.293 1615.51 134.057C1610.96 142.821 1608.69 152.559 1608.69 163.92C1608.69 175.281 1610.96 185.019 1615.51 193.783C1620.05 202.547 1626.22 209.363 1634.33 214.232C1642.12 219.101 1650.89 221.698 1659.97 221.698C1671.98 221.698 1682.37 218.452 1690.49 212.285C1698.6 206.117 1704.12 198.327 1707.37 189.563H1749.24C1746.32 201.573 1741.12 212.609 1733.66 222.996C1726.19 233.383 1716.13 241.498 1704.12 247.99C1692.11 254.482 1677.18 257.728 1659.97 257.728V257.403Z" fill="#222222"/>
</svg>
