<svg width="222" height="32" viewBox="0 0 222 32" fill="none" xmlns="http://www.w3.org/2000/svg">
<g clip-path="url(#clip0_582_104)">
<path d="M3.52749 4.25C3.52749 3.2725 3.44249 2.55 3.22999 2.0825C3.01749 1.615 2.6775 1.2325 2.21 1.0625C1.7425 0.85 0.9775 0.7225 0 0.595V0H11.05C13.77 0 16.1925 0.51 18.275 1.4875C20.3575 2.465 21.9725 3.91 23.12 5.695C24.2675 7.5225 24.8625 9.605 24.8625 11.985C24.8625 14.365 24.2675 16.49 23.12 18.3175C21.9725 20.145 20.3575 21.5475 18.275 22.525C16.1925 23.5025 13.8125 24.0125 11.05 24.0125H0V23.4175C1.02 23.3325 1.78499 23.1625 2.2525 22.95C2.72 22.7375 3.06 22.355 3.2725 21.8875C3.485 21.42 3.57 20.655 3.57 19.6775V4.25H3.52749ZM10.115 23.035C12.24 23.035 14.0675 22.61 15.555 21.76C17.0425 20.91 18.19 19.635 18.955 18.02C19.72 16.3625 20.145 14.365 20.145 12.0275C20.145 9.69 19.7625 7.735 18.955 6.12C18.19 4.4625 17.0425 3.23 15.555 2.38C14.0675 1.53 12.24 1.0625 10.115 1.0625H7.565V23.0775H10.115V23.035Z" fill="#222222"/>
<path d="M30.9402 24.565C30.2177 24.565 29.5802 24.395 29.0277 24.0975C28.4752 23.7575 28.0077 23.3325 27.7102 22.78C27.3702 22.2275 27.2427 21.59 27.2427 20.8675C27.2427 20.06 27.4552 19.38 27.8802 18.8275C28.3052 18.275 28.9002 17.8075 29.7077 17.425C30.5152 17.0425 31.5777 16.6175 32.8952 16.1925L36.2952 15.0875V15.8525L33.9577 16.83C33.2777 17.085 32.6827 17.3825 32.2577 17.6375C31.8327 17.8925 31.4927 18.2325 31.2377 18.615C30.9827 18.9975 30.8977 19.4225 30.8977 19.9325C30.8977 20.6125 31.1102 21.165 31.4927 21.59C31.8752 21.9725 32.3852 22.185 33.0227 22.185C33.4052 22.185 33.7877 22.1425 34.0852 22.015C34.4252 21.8875 34.7227 21.7175 35.0627 21.4625C35.4027 21.2075 35.7002 20.91 36.0827 20.5275V13.345C36.0827 12.1125 35.7852 11.1775 35.2327 10.54C34.6377 9.90252 33.8302 9.60502 32.7252 9.60502C31.8327 9.60502 30.9827 9.77502 30.1752 10.1575C29.3677 10.4975 28.6027 11.0075 27.8802 11.6025L27.4127 11.0925C28.3052 10.115 29.3677 9.22252 30.6002 8.50002C31.8327 7.77752 33.0652 7.39502 34.2977 7.39502C35.3177 7.39502 36.2527 7.60752 37.1027 8.03252C37.9102 8.45752 38.5477 9.13752 39.0152 10.03C39.4827 10.9225 39.6952 12.0275 39.6952 13.345V21.2925C39.6952 21.8875 39.7802 22.27 39.9927 22.5675C40.2052 22.8225 40.5027 22.95 40.9702 22.95C41.4377 22.95 41.8627 22.8225 42.3302 22.4825L42.6277 22.95C42.1177 23.4175 41.5652 23.8 40.9277 24.0975C40.3327 24.3525 39.6527 24.5225 38.9302 24.5225C38.0802 24.5225 37.4002 24.2675 36.8902 23.7575C36.3802 23.2475 36.0827 22.5675 36.0827 21.675V21.505H35.9552C35.2327 22.525 34.4677 23.3325 33.6602 23.8425C32.8527 24.3525 31.9602 24.6075 31.0252 24.6075" fill="#222222"/>
<path d="M49.4702 24.565C48.6627 24.565 47.9402 24.4375 47.3027 24.0975C46.6652 23.8 46.1977 23.3325 45.8152 22.695C45.4327 22.0575 45.2627 21.25 45.2627 20.23V8.88246H42.1177V8.28746C43.0102 7.90496 43.7752 7.47996 44.4552 7.01246C45.1352 6.54496 45.7727 6.03496 46.3677 5.43996C46.9627 4.84496 47.5152 4.16496 48.0677 3.39996H48.8752V7.81996H53.8477V8.92496H48.8752V20.4425C48.8752 21.2925 49.0452 21.8875 49.4277 22.27C49.8102 22.6525 50.3202 22.865 51.0427 22.865C51.5102 22.865 51.9352 22.8225 52.4027 22.695C52.8277 22.5675 53.2952 22.3975 53.7202 22.1L54.1452 22.6525C53.3802 23.29 52.6152 23.8 51.8502 24.0975C51.0852 24.4375 50.2777 24.565 49.5127 24.565" fill="#222222"/>
<path d="M59.2447 24.565C58.5222 24.565 57.8847 24.395 57.3322 24.0975C56.7797 23.7575 56.3122 23.3325 56.0147 22.78C55.6747 22.2275 55.5472 21.59 55.5472 20.8675C55.5472 20.06 55.7597 19.38 56.1847 18.8275C56.6097 18.275 57.2047 17.8075 58.0122 17.425C58.8197 17.0425 59.8822 16.6175 61.1997 16.1925L64.5997 15.0875V15.8525L62.2622 16.83C61.5822 17.085 60.9872 17.3825 60.5622 17.6375C60.1372 17.8925 59.7972 18.2325 59.5422 18.615C59.2872 18.9975 59.2022 19.4225 59.2022 19.9325C59.2022 20.6125 59.4147 21.165 59.7972 21.59C60.1797 21.9725 60.6897 22.185 61.3272 22.185C61.7097 22.185 62.0922 22.1425 62.3897 22.015C62.7297 21.8875 63.0272 21.7175 63.3672 21.4625C63.7072 21.2075 64.0047 20.91 64.3872 20.5275V13.345C64.3872 12.1125 64.0897 11.1775 63.5372 10.54C62.9422 9.90252 62.1347 9.60502 61.0297 9.60502C60.1372 9.60502 59.2872 9.77502 58.4797 10.1575C57.6722 10.4975 56.9072 11.0075 56.1847 11.6025L55.7172 11.0925C56.6097 10.115 57.6722 9.22252 58.9047 8.50002C60.1372 7.77752 61.3697 7.39502 62.6022 7.39502C63.6222 7.39502 64.5572 7.60752 65.4072 8.03252C66.2147 8.45752 66.8522 9.13752 67.3197 10.03C67.7872 10.9225 67.9997 12.0275 67.9997 13.345V21.2925C67.9997 21.8875 68.0847 22.27 68.2972 22.5675C68.5097 22.8225 68.8072 22.95 69.2747 22.95C69.7422 22.95 70.1672 22.8225 70.6347 22.4825L70.9322 22.95C70.4222 23.4175 69.8697 23.8 69.2322 24.0975C68.6372 24.3525 67.9572 24.5225 67.2347 24.5225C66.3847 24.5225 65.7047 24.2675 65.1947 23.7575C64.6847 23.2475 64.3872 22.5675 64.3872 21.675V21.505H64.2597C63.5372 22.525 62.7722 23.3325 61.9647 23.8425C61.1572 24.3525 60.2647 24.6075 59.3297 24.6075" fill="#222222"/>
<path d="M90.4399 24.395L81.3449 4.08H81.2174V19.7625C81.2174 20.74 81.3024 21.4625 81.5149 21.93C81.7274 22.3975 82.0674 22.78 82.5349 22.9925C83.0024 23.205 83.7674 23.375 84.7449 23.46V24.055H76.3724V23.46C77.3924 23.375 78.1574 23.205 78.6249 22.9925C79.0924 22.78 79.4324 22.44 79.6449 21.93C79.8574 21.4625 79.9424 20.74 79.9424 19.7625V4.2075C79.9424 3.2725 79.8574 2.5925 79.6449 2.0825C79.4324 1.615 79.0924 1.2325 78.6249 1.02C78.1574 0.8075 77.3924 0.6375 76.3724 0.595V0H83.8524L92.2249 18.7H92.3524L100.3 0H107.525V0.595C106.547 0.68 105.782 0.8075 105.272 1.02C104.762 1.2325 104.422 1.5725 104.252 2.0825C104.082 2.55 103.955 3.2725 103.955 4.2075V19.8475C103.955 20.825 104.04 21.5475 104.252 22.015C104.422 22.4825 104.762 22.8225 105.272 23.035C105.782 23.2475 106.505 23.4175 107.525 23.5025V24.0975H96.3474V23.5025C97.3674 23.4175 98.1324 23.2475 98.5999 23.035C99.1099 22.8225 99.4499 22.4825 99.6199 22.015C99.7899 21.5475 99.8749 20.825 99.8749 19.8475V4.0375H99.7474L91.0774 24.4375H90.3974L90.4399 24.395Z" fill="#222222"/>
<path d="M112.668 24.565C111.945 24.565 111.308 24.395 110.755 24.0975C110.203 23.7575 109.735 23.3325 109.438 22.78C109.098 22.2275 108.97 21.59 108.97 20.8675C108.97 20.06 109.183 19.38 109.608 18.8275C110.033 18.275 110.628 17.8075 111.435 17.425C112.243 17.0425 113.305 16.6175 114.623 16.1925L118.023 15.0875V15.8525L115.685 16.83C115.005 17.085 114.41 17.3825 113.985 17.6375C113.56 17.8925 113.22 18.2325 112.965 18.615C112.71 18.9975 112.625 19.4225 112.625 19.9325C112.625 20.6125 112.838 21.165 113.22 21.59C113.603 21.9725 114.113 22.185 114.75 22.185C115.133 22.185 115.515 22.1425 115.813 22.015C116.153 21.8875 116.45 21.7175 116.79 21.4625C117.13 21.2075 117.428 20.91 117.81 20.5275V13.345C117.81 12.1125 117.513 11.1775 116.96 10.54C116.365 9.90252 115.558 9.60502 114.453 9.60502C113.56 9.60502 112.71 9.77502 111.903 10.1575C111.095 10.4975 110.33 11.0075 109.608 11.6025L109.14 11.0925C110.033 10.115 111.095 9.22252 112.328 8.50002C113.56 7.77752 114.793 7.39502 116.025 7.39502C117.045 7.39502 117.98 7.60752 118.83 8.03252C119.638 8.45752 120.275 9.13752 120.743 10.03C121.21 10.9225 121.423 12.0275 121.423 13.345V21.2925C121.423 21.8875 121.508 22.27 121.72 22.5675C121.933 22.8225 122.23 22.95 122.698 22.95C123.165 22.95 123.59 22.8225 124.058 22.4825L124.355 22.95C123.845 23.4175 123.293 23.8 122.655 24.0975C122.06 24.3525 121.38 24.5225 120.658 24.5225C119.808 24.5225 119.128 24.2675 118.618 23.7575C118.108 23.2475 117.81 22.5675 117.81 21.675V21.505H117.683C116.96 22.525 116.195 23.3325 115.388 23.8425C114.58 24.3525 113.688 24.6075 112.753 24.6075" fill="#222222"/>
<path d="M132.727 31.4927C131.282 31.4927 129.965 31.3652 128.86 31.0252C127.755 30.7277 126.862 30.3027 126.267 29.7077C125.672 29.1127 125.375 28.4327 125.375 27.6677C125.375 26.9877 125.63 26.3927 126.14 25.8402C126.65 25.2877 127.5 24.7352 128.647 24.1827V23.5452L130.22 23.9277C129.582 24.2677 129.115 24.6502 128.817 25.2027C128.52 25.7127 128.35 26.3077 128.35 26.9452C128.35 28.0077 128.732 28.8577 129.497 29.4952C130.262 30.1327 131.367 30.4302 132.897 30.4302C133.917 30.4302 134.895 30.2602 135.787 29.9202C136.68 29.5802 137.402 29.1127 137.912 28.5602C138.422 27.9652 138.677 27.3277 138.677 26.6052C138.677 25.7977 138.38 25.2027 137.785 24.8202C137.19 24.4377 136.255 24.2252 134.937 24.2252H129.71C129.03 24.2252 128.435 24.0977 127.882 23.8852C127.33 23.6727 126.905 23.3327 126.65 22.8652C126.395 22.3977 126.225 21.8877 126.225 21.3352C126.225 20.6552 126.48 19.9327 126.99 19.2527C127.5 18.5302 128.392 17.8927 129.625 17.2977V16.8302L130.942 17.3827C130.305 17.6377 129.795 18.0202 129.455 18.4027C129.115 18.7852 128.945 19.2102 128.945 19.6777C128.945 20.1452 129.115 20.4852 129.455 20.7827C129.795 21.0377 130.347 21.1652 131.112 21.1652H136.085C137.912 21.1652 139.4 21.5052 140.42 22.2277C141.482 22.9502 141.992 23.9702 141.992 25.2877C141.992 26.3502 141.61 27.3702 140.845 28.3052C140.08 29.2402 138.975 30.0477 137.572 30.6427C136.17 31.2377 134.512 31.5352 132.642 31.5352M133.365 18.0627C132.047 18.0627 130.9 17.8502 129.88 17.3827C128.86 16.9152 128.095 16.2777 127.542 15.4702C126.99 14.6627 126.692 13.7277 126.692 12.7077C126.692 11.6877 126.99 10.7102 127.542 9.90269C128.095 9.09519 128.902 8.45769 129.88 8.03269C130.9 7.56519 132.005 7.35269 133.28 7.35269C133.79 7.35269 134.342 7.39519 134.937 7.52269C135.49 7.65019 136.042 7.82019 136.51 8.07519V8.45769C137.53 8.75519 138.337 9.26519 138.975 9.98769C139.612 10.7102 139.91 11.6027 139.91 12.6652C139.91 13.7277 139.655 14.5777 139.06 15.4277C138.507 16.2352 137.742 16.9152 136.722 17.3827C135.702 17.8502 134.597 18.1052 133.322 18.1052M133.365 17.1277C134.002 17.1277 134.512 16.9577 134.937 16.5752C135.362 16.2352 135.745 15.6827 135.957 15.0452C136.212 14.3652 136.34 13.6002 136.34 12.7077C136.34 11.3052 136.085 10.2427 135.532 9.43519C134.98 8.67019 134.257 8.24519 133.322 8.24519C132.727 8.24519 132.175 8.41519 131.75 8.79769C131.282 9.13769 130.942 9.64769 130.687 10.3277C130.432 10.9652 130.305 11.7727 130.305 12.7077C130.305 14.0677 130.56 15.1302 131.112 15.9377C131.665 16.7452 132.387 17.1277 133.322 17.1277M135.532 8.28769L135.065 7.65019L141.95 4.37769H142.077V8.24519H135.532V8.28769Z" fill="#222222"/>
<path d="M147.773 24.565C147.05 24.565 146.413 24.395 145.86 24.0975C145.308 23.8 144.84 23.3325 144.543 22.78C144.203 22.2275 144.075 21.59 144.075 20.8675C144.075 20.06 144.288 19.38 144.713 18.8275C145.138 18.275 145.733 17.8075 146.54 17.425C147.348 17.0425 148.41 16.6175 149.728 16.1925L153.128 15.0875V15.8525L150.79 16.83C150.11 17.085 149.515 17.3825 149.09 17.6375C148.665 17.8925 148.325 18.2325 148.07 18.615C147.858 18.9975 147.73 19.4225 147.73 19.9325C147.73 20.6125 147.943 21.165 148.325 21.59C148.708 21.9725 149.218 22.185 149.855 22.185C150.238 22.185 150.62 22.1425 150.918 22.015C151.258 21.8875 151.555 21.7175 151.895 21.4625C152.235 21.2075 152.533 20.91 152.915 20.5275V13.345C152.915 12.1125 152.618 11.1775 152.065 10.54C151.47 9.90252 150.663 9.60502 149.558 9.60502C148.665 9.60502 147.815 9.77502 147.008 10.1575C146.2 10.4975 145.435 11.0075 144.713 11.6025L144.245 11.0925C145.138 10.115 146.2 9.22252 147.433 8.50002C148.665 7.77752 149.898 7.39502 151.13 7.39502C152.15 7.39502 153.085 7.60752 153.935 8.03252C154.743 8.45752 155.38 9.13752 155.848 10.03C156.315 10.9225 156.528 12.0275 156.528 13.345V21.2925C156.528 21.8875 156.613 22.27 156.825 22.5675C157.038 22.8225 157.335 22.95 157.803 22.95C158.27 22.95 158.695 22.8225 159.163 22.4825L159.46 22.95C158.95 23.4175 158.398 23.8 157.76 24.0975C157.165 24.3525 156.485 24.5225 155.763 24.5225C154.913 24.5225 154.233 24.2675 153.723 23.7575C153.213 23.2475 152.915 22.5675 152.915 21.675V21.505H152.788C152.065 22.525 151.3 23.3325 150.493 23.8425C149.685 24.3525 148.793 24.6075 147.858 24.6075" fill="#222222"/>
<path d="M171.02 22.6526C171.742 22.3976 172.337 21.8876 172.847 21.1651C173.315 20.4851 173.74 19.4651 174.037 18.1901H174.632V24.0976H160.99V23.5451L170.127 8.92509V8.79759H167.45C166.345 8.79759 165.495 8.92509 164.815 9.13759C164.135 9.35009 163.582 9.77509 163.157 10.3276C162.732 10.9226 162.392 11.7301 162.137 12.7501H161.5V7.77759H174.632V8.33009L165.495 22.9501V23.0776H168.385C169.405 23.0776 170.297 22.9501 171.02 22.6526Z" fill="#222222"/>
<path d="M183.218 20.7401C183.218 21.4626 183.26 22.0151 183.388 22.3551C183.515 22.6951 183.728 22.9501 184.068 23.0776C184.408 23.2476 184.918 23.3751 185.555 23.5026V24.0976H177.268V23.5026C177.948 23.3751 178.458 23.2476 178.798 23.0776C179.138 22.9076 179.35 22.6526 179.435 22.3551C179.563 22.0151 179.605 21.4626 179.605 20.7401V11.9426C179.605 11.3901 179.52 10.9226 179.393 10.6251C179.223 10.3276 178.968 10.0726 178.628 9.94508C178.245 9.81758 177.735 9.73258 177.013 9.69008V9.09508L183.09 7.52258H183.218V20.7401Z" fill="#222222"/>
<path d="M189.72 11.8999C189.72 11.3049 189.635 10.8799 189.465 10.5824C189.295 10.2849 189.04 10.0724 188.658 9.94492C188.275 9.81742 187.765 9.73242 187.085 9.73242V9.13742L193.163 7.56492H193.29V10.4974H193.418C194.14 9.47742 194.948 8.66992 195.755 8.15992C196.563 7.64992 197.498 7.35242 198.56 7.35242C199.495 7.35242 200.345 7.56492 201.11 7.98992C201.833 8.41492 202.428 9.05242 202.853 9.90242C203.278 10.7524 203.49 11.8149 203.49 13.0474V20.7399C203.49 21.4624 203.533 22.0149 203.66 22.3549C203.788 22.6949 204 22.9499 204.298 23.1199C204.595 23.2899 205.105 23.4174 205.785 23.5449V24.1399H197.71V23.5449C198.348 23.4174 198.815 23.2899 199.113 23.1199C199.41 22.9499 199.623 22.6949 199.75 22.3549C199.878 22.0149 199.92 21.4624 199.92 20.7824V13.1749C199.92 12.3674 199.793 11.6874 199.538 11.1774C199.283 10.6674 198.943 10.2849 198.518 9.98742C198.093 9.73242 197.583 9.60492 196.945 9.60492C196.478 9.60492 196.053 9.68992 195.628 9.85992C195.203 10.0299 194.82 10.2424 194.395 10.5399C194.013 10.8374 193.63 11.1349 193.29 11.5174V20.7399C193.29 21.4624 193.333 21.9724 193.46 22.3124C193.588 22.6524 193.8 22.9074 194.098 23.0774C194.395 23.2474 194.863 23.3749 195.458 23.5024V24.0974H187.34V23.5024C188.02 23.3749 188.53 23.2474 188.87 23.0774C189.21 22.9074 189.423 22.6524 189.508 22.3124C189.635 21.9724 189.678 21.4624 189.678 20.6974V11.8574L189.72 11.8999Z" fill="#222222"/>
<path d="M214.625 24.5649C213.222 24.5649 211.905 24.2249 210.757 23.5024C209.567 22.7799 208.632 21.8024 207.952 20.5274C207.272 19.2524 206.932 17.7649 206.932 16.0224C206.932 14.4499 207.272 12.9624 207.952 11.6449C208.632 10.3274 209.525 9.26492 210.715 8.49992C211.905 7.73492 213.18 7.35242 214.625 7.35242C215.815 7.35242 216.877 7.56492 217.812 8.03242C218.747 8.49992 219.512 9.13742 220.065 10.0299C220.617 10.9224 220.872 12.0274 220.872 13.3024V13.9399H209.355V12.9624H219.172L217.387 13.4299C217.472 12.4524 217.387 11.6024 217.175 10.8374C216.962 10.0724 216.58 9.47742 216.112 9.05242C215.602 8.58492 215.007 8.37242 214.285 8.37242C213.52 8.37242 212.797 8.62742 212.202 9.09492C211.607 9.56242 211.14 10.2849 210.8 11.2199C210.46 12.1124 210.29 13.2174 210.29 14.4074C210.29 15.9374 210.545 17.2549 211.055 18.3174C211.565 19.4224 212.245 20.2299 213.137 20.7824C214.03 21.3349 215.007 21.6324 216.155 21.6324C217.175 21.6324 218.067 21.4624 218.917 21.1224C219.725 20.7824 220.49 20.2299 221.17 19.4649L221.637 19.9324C220.745 21.4199 219.767 22.5674 218.62 23.3324C217.472 24.1399 216.155 24.5224 214.582 24.5224" fill="#222222"/>
</g>
<defs>
<clipPath id="clip0_582_104">
<rect width="222" height="32" fill="white"/>
</clipPath>
</defs>
</svg>
