<svg width="32" height="32" viewBox="0 0 32 32" fill="none" xmlns="http://www.w3.org/2000/svg">
<path d="M23.75 3C22.1631 3 20.6777 3.48286 19.4506 4.30929C19.4321 4.31857 19.4137 4.32786 19.4045 4.34643L3.9506 14.7093C1.8747 16.1114 0.5 18.4886 0.5 21.2C0.5 25.5086 3.96905 29 8.25 29H23.75C28.031 29 31.5 25.5086 31.5 21.2V10.8C31.5 6.49143 28.031 3 23.75 3Z" fill="black"/>
<path d="M23.0842 11.0095H14.2435C12.1809 11.0095 10.5 12.3136 10.5 14.4744V29H12.8624V23.9836C13.4348 24.3263 14.2616 24.3929 14.8976 24.1169L24.7742 19.8905C26.3733 19.2052 27.5 17.6917 27.5 15.55C27.5 12.6372 25.5192 11 23.0751 11L23.0842 11.0095ZM23.7565 17.8154L14.2253 21.8895C13.6619 22.1274 12.8624 21.8704 12.8624 21.1851V14.9503C12.8624 13.8271 13.5529 13.3131 14.407 13.3131H22.9115C24.1472 13.3131 25.1467 14.1983 25.1467 15.569C25.1467 16.6827 24.5743 17.4728 23.7565 17.825V17.8154Z" fill="white"/>
</svg>
