<svg width="180" height="24" viewBox="0 0 180 24" fill="none" xmlns="http://www.w3.org/2000/svg">
<g clip-path="url(#clip0_60_332)">
<path d="M43.6 15.4667C45.5333 15 47 13.2 47 11.0667C47 8.53332 45 6.53333 42.4667 6.53333H30.3333C27.0667 6.53333 24.1333 8.73333 24.1333 11.9333V18.4667C24.1333 21.7333 27.0667 23.8667 30.3333 23.8667H46.3333V20.8667H29.9333C28.5333 20.8667 27.8667 20.4 27.6 19.4L43.4667 15.4667H43.6ZM42.4667 12.7333L27.5333 16.4667V12.1333C27.5333 10.5333 28.6667 9.53332 30.4 9.53332H42.1333C43 9.53332 43.7333 10.2 43.7333 11.0667C43.7333 11.9333 43.2667 12.6 42.4667 12.7333Z" fill="#222222"/>
<path d="M106.267 1.53333H102.933V23.8667H106.267V1.53333Z" fill="#222222"/>
<path d="M126.267 6.33331C125.133 6.33331 124.133 6.59998 123.2 7.13331L112.067 13.1333C110.267 14.0666 109 15.8666 109 18.2C109 21.4 111.467 23.9333 114.733 23.9333H126.6C130 23.9333 132.8 21.6 132.8 17.8666V12.4666C132.8 8.86665 129.867 6.33331 126.267 6.33331ZM129.467 17.8C129.467 19.6 128.067 20.8 126.333 20.8H114.933C113.267 20.8 112.267 19.5333 112.267 18.0666C112.267 16.8666 112.8 16.0666 113.733 15.6L124.6 9.86665C125.067 9.59998 125.667 9.46665 126.2 9.46665C128.133 9.46665 129.467 10.8 129.467 12.7333V17.8666V17.8Z" fill="#222222"/>
<path d="M66.8667 6.39999C65.7333 6.39999 64.7333 6.66666 63.8 7.19999L53.0667 12.9333V1.53333H49.7333V17.8667C49.7333 21.2667 52.5333 23.8667 55.9333 23.8667H67.2C70.6 23.8667 73.4 21.2667 73.4 17.8667V12.4667C73.4 8.86666 70.4667 6.33333 66.8667 6.33333V6.39999ZM70.0667 17.8667C70.0667 19.6 68.8 20.8 66.9333 20.8H56.1333C54.2667 20.8 53 19.6 53 17.8667V16.3333L65.1333 9.86666C65.6 9.59999 66.2 9.46666 66.7333 9.46666C68.6667 9.46666 70 10.8 70 12.7333V17.8667H70.0667Z" fill="#222222"/>
<path d="M93.3333 6.39999C92.2 6.39999 91.2 6.66666 90.2667 7.19999L79.5333 12.9333V1.53333H76.2V17.8667C76.2 21.2667 79 23.8667 82.4 23.8667H93.6667C97.0667 23.8667 99.8667 21.2667 99.8667 17.8667V12.4667C99.8667 8.86666 96.9333 6.33333 93.3333 6.33333V6.39999ZM96.5333 17.8667C96.5333 19.6 95.2667 20.8 93.4 20.8H82.6C80.7333 20.8 79.4667 19.6 79.4667 17.8667V16.3333L91.6 9.86666C92.0667 9.59999 92.6667 9.46666 93.2 9.46666C95.1333 9.46666 96.4667 10.8 96.4667 12.7333V17.8667H96.5333Z" fill="#222222"/>
<path d="M153.467 17.6L144 20.6C143.6 20.7334 143.133 20.8 142.467 20.8C140.2 20.8 139 19.4 139 17.4V6.40002H135.8V17.6667C135.8 21.4667 138.667 23.9334 142.333 23.9334C143.467 23.9334 144.133 23.7334 144.933 23.5334L153.533 20.8667V24.0667H156.8V6.40002H153.533V17.5334L153.467 17.6Z" fill="#222222"/>
<path d="M176.4 15.0667L164.267 12.4C163.467 12.2 163.067 11.6 163.067 10.8667C163.067 10.0667 163.733 9.53334 164.467 9.53334H179.4V6.46667H164.4C161.867 6.46667 159.867 8.13334 159.867 10.8667C159.867 13.0667 161.4 14.8 163.467 15.2667L175.6 17.9333C176.4 18.1333 176.733 18.6667 176.733 19.3333C176.733 20.1333 176.133 20.8 175.333 20.8H159.867V23.8667H175.467C178.133 23.8667 180 22 180 19.4667C180 17.1333 178.467 15.4667 176.4 15.0667Z" fill="#222222"/>
<path d="M17.6 0H5.2C2.33333 0 0 1.73333 0 4.6V24H3.33333V17.3333C4.13333 17.8 5.26667 17.8667 6.2 17.5333L20 11.8667C22.2667 10.9333 23.8 8.93333 23.8 6.06667C23.8 2.2 21 0 17.6 0ZM18.5333 9.06667L5.2 14.5333C4.4 14.8667 3.26667 14.5333 3.26667 13.6V5.26667C3.26667 3.8 4.26667 3.06667 5.4 3.06667H17.2667C19 3.06667 20.4 4.26667 20.4 6.06667C20.4 7.53333 19.6 8.6 18.4667 9.06667H18.5333Z" fill="#222222"/>
</g>
<defs>
<clipPath id="clip0_60_332">
<rect width="180" height="24" fill="white"/>
</clipPath>
</defs>
</svg>
