<svg xmlns="http://www.w3.org/2000/svg" width="204.570" height="30" viewBox="0 0 204.570 30" fill="none">
  <path d="M 79.43 23.678 L 79.43 0.395 L 83.09 0.395 L 83.09 20.384 L 86.714 20.384 L 86.714 23.678 L 79.43 23.678 Z" fill="currentColor" fill-rule="nonzero"/>
  <path d="M 16.65 4.186 C 15.907 2.987 14.871 2.057 13.539 1.391 C 12.208 0.726 10.665 0.393 8.914 0.393 L 0 0.393 L 0 23.678 L 3.991 23.678 L 3.991 16.127 L 8.914 16.127 C 10.665 16.127 12.206 15.794 13.539 15.129 C 14.87 14.463 15.906 13.531 16.65 12.334 C 17.394 11.136 17.762 9.772 17.762 8.243 C 17.762 6.713 17.394 5.381 16.65 4.184 L 16.65 4.186 Z M 13.091 10.491 C 12.722 11.102 12.185 11.561 11.478 11.871 C 10.767 12.181 9.901 12.336 8.882 12.336 L 3.991 12.336 L 3.991 4.186 L 8.882 4.186 C 10.434 4.186 11.614 4.541 12.423 5.25 C 13.236 5.959 13.639 6.957 13.639 8.245 C 13.639 9.132 13.455 9.88 13.091 10.489 L 13.091 10.491 Z" fill="currentColor" fill-rule="nonzero"/>
  <path d="M 35.483 10.689 C 34.708 9.304 33.653 8.235 32.322 7.481 C 30.993 6.727 29.506 6.35 27.864 6.35 C 26.221 6.35 24.719 6.738 23.358 7.515 C 21.993 8.29 20.918 9.351 20.131 10.691 C 19.341 12.034 18.948 13.535 18.948 15.198 C 18.948 16.862 19.341 18.331 20.131 19.672 C 20.918 21.014 21.993 22.073 23.358 22.848 C 24.719 23.623 26.224 24.012 27.864 24.012 C 29.351 24.012 30.667 23.742 31.822 23.199 C 32.974 22.657 33.923 21.935 34.666 21.037 C 35.409 20.139 35.936 19.191 36.246 18.193 L 32.454 18.193 C 32.032 18.968 31.458 19.59 30.726 20.055 C 29.992 20.521 29.051 20.753 27.899 20.753 C 26.879 20.753 25.979 20.521 25.203 20.055 C 24.428 19.59 23.825 18.936 23.392 18.091 C 23.128 17.577 22.973 17 22.869 16.395 L 36.645 16.395 L 36.645 15.531 C 36.645 13.69 36.26 12.077 35.483 10.691 L 35.483 10.689 Z M 23.392 12.27 C 23.825 11.427 24.428 10.773 25.203 10.306 C 25.979 9.841 26.879 9.608 27.899 9.608 C 28.92 9.608 29.726 9.825 30.459 10.258 C 31.193 10.689 31.773 11.272 32.206 12.003 C 32.484 12.472 32.664 12.979 32.8 13.501 L 22.952 13.501 C 23.06 13.066 23.196 12.65 23.392 12.27 Z" fill="currentColor" fill-rule="nonzero"/>
  <path d="M 48.796 24.011 C 47.554 24.011 46.429 23.746 45.422 23.213 C 44.41 22.68 43.654 22.003 43.14 21.184 L 42.973 21.184 L 42.973 23.678 L 39.515 23.678 L 39.515 0.395 L 43.176 0.395 L 43.176 9.009 L 43.342 9.009 C 43.786 8.3 44.493 7.68 45.471 7.146 C 46.444 6.613 47.554 6.349 48.794 6.349 C 50.235 6.349 51.553 6.715 52.736 7.445 C 53.924 8.179 54.865 9.213 55.567 10.557 C 56.262 11.898 56.614 13.444 56.614 15.197 C 56.614 16.949 56.264 18.462 55.567 19.804 C 54.867 21.144 53.924 22.182 52.736 22.914 C 51.553 23.648 50.235 24.011 48.794 24.011 L 48.796 24.011 Z M 47.934 20.751 C 48.908 20.751 49.761 20.534 50.494 20.103 C 51.228 19.67 51.797 19.033 52.209 18.189 C 52.617 17.346 52.823 16.348 52.823 15.195 C 52.823 14.041 52.617 13.011 52.209 12.168 C 51.797 11.325 51.228 10.691 50.494 10.272 C 49.761 9.852 48.91 9.64 47.934 9.64 C 46.959 9.64 46.148 9.858 45.437 10.289 C 44.73 10.722 44.174 11.353 43.777 12.185 C 43.376 13.017 43.177 14.021 43.177 15.195 C 43.177 16.369 43.376 17.367 43.777 18.189 C 44.174 19.008 44.73 19.641 45.437 20.084 C 46.148 20.528 46.978 20.749 47.934 20.749 L 47.934 20.751 Z" fill="currentColor" fill-rule="nonzero"/>
  <path d="M 68.651 24.011 C 67.409 24.011 66.284 23.746 65.277 23.213 C 64.265 22.68 63.509 22.003 62.995 21.184 L 62.828 21.184 L 62.828 23.678 L 59.37 23.678 L 59.37 0.395 L 63.031 0.395 L 63.031 9.009 L 63.197 9.009 C 63.641 8.3 64.348 7.68 65.326 7.146 C 66.299 6.613 67.409 6.349 68.649 6.349 C 70.09 6.349 71.408 6.715 72.591 7.445 C 73.779 8.179 74.72 9.213 75.422 10.557 C 76.117 11.898 76.469 13.444 76.469 15.197 C 76.469 16.949 76.119 18.462 75.422 19.804 C 74.722 21.144 73.779 22.182 72.591 22.914 C 71.408 23.648 70.09 24.011 68.649 24.011 L 68.651 24.011 Z M 67.789 20.751 C 68.763 20.751 69.616 20.534 70.349 20.103 C 71.083 19.67 71.652 19.033 72.064 18.189 C 72.472 17.346 72.678 16.348 72.678 15.195 C 72.678 14.041 72.472 13.011 72.064 12.168 C 71.652 11.325 71.083 10.691 70.349 10.272 C 69.616 9.852 68.765 9.64 67.789 9.64 C 66.814 9.64 66.003 9.858 65.292 10.289 C 64.585 10.722 64.029 11.353 63.632 12.185 C 63.231 13.017 63.033 14.021 63.033 15.195 C 63.033 16.369 63.231 17.367 63.632 18.189 C 64.029 19.008 64.585 19.641 65.292 20.084 C 66.003 20.528 66.833 20.749 67.789 20.749 L 67.789 20.751 Z" fill="currentColor" fill-rule="nonzero"/>
  <path d="M 156.439 24.011 C 154.753 24.011 153.242 23.634 151.898 22.88 C 150.556 22.126 149.501 21.076 148.737 19.736 C 147.971 18.394 147.589 16.881 147.589 15.195 C 147.589 13.508 147.968 11.962 148.722 10.619 C 149.476 9.279 150.527 8.232 151.879 7.477 C 153.233 6.723 154.753 6.347 156.437 6.347 C 158.122 6.347 159.606 6.723 160.96 7.477 C 162.313 8.232 163.367 9.279 164.121 10.619 C 164.875 11.962 165.251 13.487 165.251 15.195 C 165.251 16.902 164.875 18.392 164.121 19.736 C 163.367 21.076 162.313 22.126 160.96 22.88 C 159.606 23.634 158.101 24.011 156.437 24.011 L 156.439 24.011 Z M 156.439 20.719 C 157.456 20.719 158.345 20.492 159.099 20.037 C 159.854 19.581 160.434 18.946 160.846 18.123 C 161.258 17.303 161.461 16.327 161.461 15.197 C 161.461 14.066 161.258 13.083 160.846 12.253 C 160.434 11.421 159.854 10.778 159.099 10.325 C 158.345 9.869 157.456 9.642 156.439 9.642 C 155.422 9.642 154.526 9.869 153.76 10.325 C 152.995 10.78 152.414 11.421 152.013 12.253 C 151.616 13.083 151.414 14.064 151.414 15.197 C 151.414 16.329 151.616 17.303 152.013 18.123 C 152.414 18.944 152.995 19.581 153.76 20.037 C 154.526 20.492 155.417 20.719 156.439 20.719 Z" fill="currentColor" fill-rule="nonzero"/>
  <path d="M 96.997 24.011 C 95.311 24.011 93.8 23.634 92.456 22.88 C 91.114 22.126 90.059 21.076 89.295 19.736 C 88.529 18.394 88.147 16.881 88.147 15.195 C 88.147 13.508 88.525 11.962 89.28 10.619 C 90.034 9.279 91.085 8.232 92.437 7.477 C 93.791 6.723 95.311 6.347 96.995 6.347 C 98.68 6.347 100.164 6.723 101.517 7.477 C 102.871 8.232 103.924 9.279 104.679 10.619 C 105.433 11.962 105.809 13.487 105.809 15.195 C 105.809 16.902 105.433 18.392 104.679 19.736 C 103.924 21.076 102.871 22.126 101.517 22.88 C 100.164 23.634 98.659 24.011 96.995 24.011 L 96.997 24.011 Z M 96.997 20.719 C 98.014 20.719 98.903 20.492 99.657 20.037 C 100.411 19.581 100.992 18.946 101.404 18.123 C 101.816 17.303 102.018 16.327 102.018 15.197 C 102.018 14.066 101.816 13.083 101.404 12.253 C 100.992 11.421 100.411 10.778 99.657 10.325 C 98.903 9.869 98.014 9.642 96.997 9.642 C 95.98 9.642 95.084 9.869 94.318 10.325 C 93.552 10.78 92.972 11.421 92.571 12.253 C 92.174 13.083 91.972 14.064 91.972 15.197 C 91.972 16.329 92.174 17.303 92.571 18.123 C 92.972 18.944 93.552 19.581 94.318 20.037 C 95.084 20.492 95.974 20.719 96.997 20.719 Z" fill="currentColor" fill-rule="nonzero"/>
  <path d="M 117.918 24.077 C 114.771 24.077 112.349 23.428 110.653 22.131 C 108.957 20.834 108.051 18.955 107.942 16.494 L 112.197 16.494 C 112.241 17.756 112.725 18.738 113.646 19.437 C 114.566 20.135 115.992 20.487 117.918 20.487 C 119.272 20.487 120.38 20.226 121.246 19.704 C 122.112 19.184 122.541 18.447 122.541 17.494 C 122.541 16.739 122.299 16.125 121.811 15.648 C 121.32 15.172 120.711 14.796 119.981 14.518 C 119.247 14.24 118.227 13.924 116.92 13.571 C 115.234 13.126 113.852 12.682 112.776 12.24 C 111.7 11.797 110.791 11.12 110.052 10.211 C 109.309 9.302 108.936 8.116 108.936 6.653 C 108.936 5.345 109.29 4.186 110.001 3.178 C 110.708 2.169 111.708 1.388 112.993 0.832 C 114.283 0.278 115.776 0 117.484 0 C 120.168 0 122.308 0.594 123.904 1.781 C 125.503 2.966 126.377 4.679 126.532 6.92 L 122.276 6.92 C 122.185 5.812 121.764 4.98 121.01 4.426 C 120.255 3.872 119.115 3.594 117.584 3.594 C 116.209 3.594 115.118 3.855 114.307 4.375 C 113.498 4.897 113.095 5.6 113.095 6.489 C 113.095 7.22 113.341 7.823 113.829 8.3 C 114.317 8.778 114.926 9.149 115.659 9.415 C 116.389 9.68 117.398 9.99 118.684 10.347 C 120.391 10.792 121.777 11.234 122.842 11.676 C 123.906 12.121 124.815 12.803 125.57 13.722 C 126.324 14.643 126.7 15.845 126.7 17.329 C 126.7 18.66 126.328 19.842 125.589 20.872 C 124.846 21.904 123.81 22.697 122.477 23.251 C 121.146 23.805 119.626 24.082 117.918 24.082 L 117.918 24.077 Z" fill="currentColor" fill-rule="nonzero"/>
  <path d="M 168.015 29.998 L 168.015 6.681 L 171.473 6.681 L 171.473 9.177 L 171.64 9.177 C 172.152 8.356 172.91 7.68 173.922 7.146 C 174.929 6.613 176.054 6.349 177.296 6.349 C 178.737 6.349 180.055 6.715 181.238 7.445 C 182.426 8.179 183.367 9.213 184.069 10.557 C 184.764 11.898 185.116 13.444 185.116 15.197 C 185.116 16.949 184.766 18.462 184.069 19.804 C 183.369 21.144 182.426 22.182 181.238 22.914 C 180.055 23.648 178.737 24.011 177.296 24.011 C 176.054 24.011 174.946 23.752 173.973 23.23 C 172.995 22.71 172.286 22.095 171.844 21.385 L 171.678 21.385 L 171.678 30 L 168.017 30 L 168.015 29.998 Z M 176.432 20.751 C 177.406 20.751 178.259 20.534 178.992 20.103 C 179.726 19.67 180.295 19.033 180.707 18.189 C 181.115 17.346 181.321 16.348 181.321 15.195 C 181.321 14.041 181.115 13.011 180.707 12.168 C 180.295 11.325 179.726 10.691 178.992 10.272 C 178.259 9.852 177.408 9.64 176.432 9.64 C 175.457 9.64 174.646 9.858 173.935 10.289 C 173.228 10.722 172.672 11.353 172.275 12.185 C 171.874 13.017 171.676 14.021 171.676 15.195 C 171.676 16.369 171.874 17.367 172.275 18.189 C 172.672 19.008 173.228 19.641 173.935 20.084 C 174.646 20.528 175.476 20.749 176.432 20.749 L 176.432 20.751 Z" fill="currentColor" fill-rule="nonzero"/>
  <path d="M 203.408 10.689 C 202.632 9.304 201.577 8.235 200.246 7.481 C 198.917 6.727 197.431 6.35 195.788 6.35 C 194.146 6.35 192.644 6.738 191.283 7.515 C 189.918 8.29 188.842 9.351 188.056 10.691 C 187.266 12.034 186.872 13.535 186.872 15.198 C 186.872 16.862 187.266 18.331 188.056 19.672 C 188.842 21.014 189.918 22.073 191.283 22.848 C 192.644 23.623 194.149 24.012 195.788 24.012 C 197.276 24.012 198.592 23.742 199.747 23.199 C 200.899 22.657 201.848 21.935 202.591 21.037 C 203.334 20.139 203.861 19.191 204.171 18.193 L 200.379 18.193 C 199.957 18.968 199.382 19.59 198.651 20.055 C 197.917 20.521 196.976 20.753 195.824 20.753 C 194.803 20.753 193.904 20.521 193.128 20.055 C 192.353 19.59 191.75 18.936 191.317 18.091 C 191.053 17.577 190.897 17 190.794 16.395 L 204.57 16.395 L 204.57 15.531 C 204.57 13.69 204.185 12.077 203.408 10.691 L 203.408 10.689 Z M 191.317 12.27 C 191.75 11.427 192.353 10.773 193.128 10.306 C 193.904 9.841 194.803 9.608 195.824 9.608 C 196.845 9.608 197.651 9.825 198.384 10.258 C 199.118 10.689 199.698 11.272 200.131 12.003 C 200.409 12.472 200.589 12.979 200.725 13.501 L 190.877 13.501 C 190.984 13.066 191.121 12.65 191.315 12.27 L 191.317 12.27 Z" fill="currentColor" fill-rule="nonzero"/>
  <path d="M 137.628 24.166 C 136.004 24.166 134.512 23.776 133.155 22.997 C 131.799 22.218 130.729 21.152 129.95 19.793 C 129.171 18.437 128.782 16.934 128.782 15.287 C 128.782 13.641 129.171 12.14 129.95 10.782 C 130.729 9.425 131.797 8.356 133.155 7.578 C 134.512 6.8 136.004 6.411 137.628 6.411 C 139.252 6.411 140.581 6.71 141.749 7.311 C 142.918 7.912 143.846 8.691 144.536 9.648 C 145.224 10.604 145.725 11.639 146.037 12.752 L 142.067 12.752 C 141.755 11.93 141.222 11.234 140.466 10.667 C 139.708 10.1 138.762 9.816 137.628 9.816 C 136.737 9.816 135.919 10.05 135.174 10.516 C 134.427 10.982 133.839 11.629 133.404 12.453 C 132.971 13.276 132.754 14.223 132.754 15.289 C 132.754 16.356 132.971 17.303 133.404 18.127 C 133.837 18.949 134.433 19.596 135.191 20.063 C 135.947 20.53 136.758 20.764 137.628 20.764 C 138.785 20.764 139.747 20.464 140.515 19.863 C 141.282 19.261 141.821 18.539 142.133 17.692 L 146.105 17.692 C 145.839 18.828 145.347 19.885 144.636 20.863 C 143.926 21.842 142.984 22.638 141.816 23.249 C 140.647 23.861 139.25 24.166 137.628 24.166 Z" fill="currentColor" fill-rule="nonzero"/>
</svg>
