<svg xmlns="http://www.w3.org/2000/svg" width="163.483" height="24.616" viewBox="0 0 163.483 24.616" fill="none">
  <path d="M 136.793 24.208 L 136.793 6.868 L 140.193 6.868 L 140.193 9.418 L 140.363 9.418 C 140.771 8.67 141.451 8.001 142.403 7.412 C 143.355 6.823 144.409 6.528 145.565 6.528 C 146.97 6.528 148.115 6.857 148.999 7.514 C 149.906 8.149 150.552 8.897 150.937 9.758 L 151.107 9.758 C 151.742 8.874 152.546 8.115 153.521 7.48 C 154.518 6.845 155.72 6.528 157.125 6.528 C 158.394 6.528 159.505 6.811 160.457 7.378 C 161.409 7.945 162.146 8.772 162.667 9.86 C 163.211 10.948 163.483 12.274 163.483 13.838 L 163.483 24.208 L 159.913 24.208 L 159.913 14.178 C 159.913 12.75 159.584 11.662 158.927 10.914 C 158.292 10.143 157.397 9.758 156.241 9.758 C 154.994 9.758 153.963 10.189 153.147 11.05 C 152.331 11.911 151.923 13.113 151.923 14.654 L 151.923 24.208 L 148.353 24.208 L 148.353 14.178 C 148.353 12.75 148.024 11.662 147.367 10.914 C 146.732 10.143 145.837 9.758 144.681 9.758 C 143.434 9.758 142.403 10.189 141.587 11.05 C 140.771 11.911 140.363 13.113 140.363 14.654 L 140.363 24.208 L 136.793 24.208 Z" fill="currentColor" fill-rule="nonzero"/>
  <path d="M 129.317 24.208 L 129.317 6.868 L 132.887 6.868 L 132.887 24.208 L 129.317 24.208 Z M 131.085 4.488 C 130.496 4.488 129.997 4.284 129.589 3.876 C 129.181 3.468 128.977 2.969 128.977 2.38 C 128.977 1.791 129.181 1.292 129.589 0.884 C 129.997 0.453 130.496 0.238 131.085 0.238 C 131.674 0.238 132.173 0.453 132.581 0.884 C 133.012 1.292 133.227 1.791 133.227 2.38 C 133.227 2.969 133.012 3.468 132.581 3.876 C 132.173 4.284 131.674 4.488 131.085 4.488 Z" fill="currentColor" fill-rule="nonzero"/>
  <path d="M 117.17 24.616 C 113.974 24.616 111.514 23.959 109.792 22.644 C 108.069 21.307 107.151 19.391 107.038 16.898 L 111.22 16.898 C 111.265 18.213 111.764 19.233 112.716 19.958 C 113.69 20.683 115.175 21.046 117.17 21.046 C 118.575 21.046 119.731 20.774 120.638 20.23 C 121.544 19.686 121.998 18.915 121.998 17.918 C 121.998 17.125 121.737 16.479 121.216 15.98 C 120.717 15.481 120.082 15.085 119.312 14.79 C 118.564 14.495 117.51 14.167 116.15 13.804 C 114.45 13.351 113.056 12.897 111.968 12.444 C 110.88 11.991 109.95 11.311 109.18 10.404 C 108.432 9.475 108.058 8.262 108.058 6.766 C 108.058 5.451 108.42 4.284 109.146 3.264 C 109.871 2.221 110.88 1.417 112.172 0.85 C 113.486 0.283 115.005 0 116.728 0 C 119.448 0 121.612 0.612 123.222 1.836 C 124.854 3.037 125.749 4.771 125.908 7.038 L 121.726 7.038 C 121.635 5.882 121.193 5.021 120.4 4.454 C 119.606 3.865 118.416 3.57 116.83 3.57 C 115.402 3.57 114.257 3.842 113.396 4.386 C 112.557 4.93 112.138 5.667 112.138 6.596 C 112.138 7.367 112.387 8.001 112.886 8.5 C 113.407 8.999 114.042 9.395 114.79 9.69 C 115.56 9.962 116.603 10.279 117.918 10.642 C 119.663 11.095 121.068 11.549 122.134 12.002 C 123.222 12.455 124.151 13.147 124.922 14.076 C 125.692 15.005 126.078 16.229 126.078 17.748 C 126.078 19.108 125.692 20.309 124.922 21.352 C 124.174 22.395 123.12 23.199 121.76 23.766 C 120.422 24.333 118.892 24.616 117.17 24.616 Z" fill="currentColor" fill-rule="nonzero"/>
  <path d="M 96.178 24.548 C 94.478 24.548 92.937 24.163 91.554 23.392 C 90.194 22.621 89.129 21.556 88.358 20.196 C 87.587 18.813 87.202 17.261 87.202 15.538 C 87.202 13.815 87.587 12.274 88.358 10.914 C 89.129 9.531 90.194 8.455 91.554 7.684 C 92.937 6.913 94.478 6.528 96.178 6.528 C 97.878 6.528 99.408 6.913 100.768 7.684 C 102.151 8.455 103.227 9.531 103.998 10.914 C 104.769 12.274 105.154 13.815 105.154 15.538 C 105.154 17.261 104.769 18.813 103.998 20.196 C 103.227 21.556 102.151 22.621 100.768 23.392 C 99.408 24.163 97.878 24.548 96.178 24.548 Z M 96.178 21.318 C 97.243 21.318 98.173 21.08 98.966 20.604 C 99.759 20.128 100.36 19.459 100.768 18.598 C 101.199 17.737 101.414 16.717 101.414 15.538 C 101.414 14.359 101.199 13.339 100.768 12.478 C 100.36 11.617 99.759 10.948 98.966 10.472 C 98.173 9.996 97.243 9.758 96.178 9.758 C 95.113 9.758 94.183 9.996 93.39 10.472 C 92.597 10.948 91.985 11.617 91.554 12.478 C 91.146 13.339 90.942 14.359 90.942 15.538 C 90.942 16.717 91.146 17.737 91.554 18.598 C 91.985 19.459 92.597 20.128 93.39 20.604 C 94.183 21.08 95.113 21.318 96.178 21.318 Z" fill="currentColor" fill-rule="nonzero"/>
  <path d="M 79.351 24.208 L 79.351 0.408 L 82.921 0.408 L 82.921 20.978 L 86.661 20.978 L 86.661 24.208 L 79.351 24.208 Z" fill="currentColor" fill-rule="nonzero"/>
  <path d="M 68.467 24.548 C 67.198 24.548 66.042 24.276 64.999 23.732 C 63.979 23.188 63.209 22.497 62.688 21.658 L 62.518 21.658 L 62.518 24.208 L 59.118 24.208 L 59.118 0.408 L 62.688 0.408 L 62.688 9.248 L 62.857 9.248 C 63.311 8.523 64.036 7.888 65.034 7.344 C 66.053 6.8 67.198 6.528 68.467 6.528 C 69.941 6.528 71.278 6.902 72.479 7.65 C 73.703 8.398 74.667 9.463 75.369 10.846 C 76.095 12.206 76.458 13.77 76.458 15.538 C 76.458 17.306 76.095 18.881 75.369 20.264 C 74.667 21.624 73.703 22.678 72.479 23.426 C 71.278 24.174 69.941 24.548 68.467 24.548 Z M 67.618 21.318 C 68.637 21.318 69.533 21.103 70.303 20.672 C 71.074 20.219 71.664 19.561 72.072 18.7 C 72.502 17.816 72.717 16.762 72.717 15.538 C 72.717 14.314 72.502 13.271 72.072 12.41 C 71.664 11.526 71.074 10.869 70.303 10.438 C 69.533 9.985 68.637 9.758 67.618 9.758 C 66.643 9.758 65.782 9.985 65.034 10.438 C 64.308 10.891 63.73 11.549 63.299 12.41 C 62.891 13.271 62.688 14.314 62.688 15.538 C 62.688 16.762 62.891 17.805 63.299 18.666 C 63.73 19.527 64.308 20.185 65.034 20.638 C 65.782 21.091 66.643 21.318 67.618 21.318 Z" fill="currentColor" fill-rule="nonzero"/>
  <path d="M 48.404 24.548 C 47.134 24.548 45.978 24.276 44.936 23.732 C 43.916 23.188 43.145 22.497 42.624 21.658 L 42.454 21.658 L 42.454 24.208 L 39.054 24.208 L 39.054 0.408 L 42.624 0.408 L 42.624 9.248 L 42.794 9.248 C 43.247 8.523 43.972 7.888 44.97 7.344 C 45.99 6.8 47.134 6.528 48.404 6.528 C 49.877 6.528 51.214 6.902 52.416 7.65 C 53.64 8.398 54.603 9.463 55.306 10.846 C 56.031 12.206 56.394 13.77 56.394 15.538 C 56.394 17.306 56.031 18.881 55.306 20.264 C 54.603 21.624 53.64 22.678 52.416 23.426 C 51.214 24.174 49.877 24.548 48.404 24.548 Z M 47.554 21.318 C 48.574 21.318 49.469 21.103 50.24 20.672 C 51.01 20.219 51.6 19.561 52.008 18.7 C 52.438 17.816 52.654 16.762 52.654 15.538 C 52.654 14.314 52.438 13.271 52.008 12.41 C 51.6 11.526 51.01 10.869 50.24 10.438 C 49.469 9.985 48.574 9.758 47.554 9.758 C 46.579 9.758 45.718 9.985 44.97 10.438 C 44.244 10.891 43.666 11.549 43.236 12.41 C 42.828 13.271 42.624 14.314 42.624 15.538 C 42.624 16.762 42.828 17.805 43.236 18.666 C 43.666 19.527 44.244 20.185 44.97 20.638 C 45.718 21.091 46.579 21.318 47.554 21.318 Z" fill="currentColor" fill-rule="nonzero"/>
  <path d="M 27.413 24.548 C 25.735 24.548 24.205 24.151 22.823 23.358 C 21.44 22.565 20.341 21.488 19.525 20.128 C 18.731 18.745 18.335 17.215 18.335 15.538 C 18.335 13.861 18.731 12.342 19.525 10.982 C 20.341 9.599 21.44 8.511 22.823 7.718 C 24.205 6.925 25.735 6.528 27.413 6.528 C 29.067 6.528 30.563 6.913 31.901 7.684 C 33.261 8.455 34.337 9.554 35.131 10.982 C 35.924 12.387 36.321 14.019 36.321 15.878 C 36.321 16.037 36.321 16.184 36.321 16.32 C 36.321 16.433 36.321 16.569 36.321 16.728 L 20.341 16.728 L 20.341 13.838 L 34.111 13.838 L 32.717 14.756 C 32.626 13.849 32.354 13.022 31.901 12.274 C 31.47 11.503 30.869 10.891 30.099 10.438 C 29.328 9.985 28.433 9.758 27.413 9.758 C 26.37 9.758 25.441 10.007 24.625 10.506 C 23.831 10.982 23.208 11.662 22.755 12.546 C 22.301 13.407 22.075 14.405 22.075 15.538 C 22.075 16.671 22.301 17.68 22.755 18.564 C 23.208 19.425 23.831 20.105 24.625 20.604 C 25.441 21.08 26.37 21.318 27.413 21.318 C 28.637 21.318 29.623 21.069 30.371 20.57 C 31.141 20.071 31.742 19.414 32.173 18.598 L 35.913 18.598 C 35.595 19.618 35.063 20.581 34.315 21.488 C 33.567 22.395 32.603 23.131 31.425 23.698 C 30.269 24.265 28.931 24.548 27.413 24.548 Z" fill="currentColor" fill-rule="nonzero"/>
  <path d="M 0 24.208 L 0 0.408 L 9.01 0.408 C 10.778 0.408 12.342 0.748 13.702 1.428 C 15.062 2.108 16.116 3.06 16.864 4.284 C 17.635 5.485 18.02 6.857 18.02 8.398 C 18.02 9.939 17.635 11.322 16.864 12.546 C 16.116 13.747 15.062 14.688 13.702 15.368 C 12.342 16.048 10.778 16.388 9.01 16.388 L 1.666 16.388 L 1.666 12.648 L 9.01 12.648 C 10.075 12.648 10.971 12.489 11.696 12.172 C 12.444 11.832 12.999 11.345 13.362 10.71 C 13.747 10.075 13.94 9.305 13.94 8.398 C 13.94 7.038 13.521 5.995 12.682 5.27 C 11.843 4.522 10.619 4.148 9.01 4.148 L 3.91 4.148 L 3.91 24.208 L 0 24.208 Z" fill="currentColor" fill-rule="nonzero"/>
</svg>
